<?xml version="1.0" encoding="utf-8"?>
<!DOCTYPE svg PUBLIC "-//W3C//DTD SVG 1.0//EN" "http://www.w3.org/TR/2001/REC-SVG-20010904/DTD/svg10.dtd">
<svg version="1.0" xmlns="http://www.w3.org/2000/svg" width="579px" height="384px" viewBox="0 0 579 384" preserveAspectRatio="xMidYMid meet">
 <g fill="#c3d6e7">
  <path d="M249 303.9 c0 -0.7 -1 -0.9 -2.5 -0.7 -2.1 0.4 -2.5 0.1 -2.5 -1.8 0 -2.1 0.5 -2.4 3.5 -2.4 3.2 0 3.5 0.2 3.5 3 0 1.7 -0.4 3 -1 3 -0.5 0 -1 -0.5 -1 -1.1z"/>
  <path d="M273 277 c0 -1.7 0.5 -3 1.3 -3 0.7 0 1.8 -0.9 2.5 -2 0.7 -1.1 2.3 -2 3.6 -2 3.7 0 2.2 3.5 -3 7.1 l-4.4 3 0 -3.1z"/>
  <path d="M267.2 246.8 c0.3 -4.2 0.4 -4.3 4.1 -4.6 l3.8 -0.3 -0.3 4.3 c-0.3 4.2 -0.4 4.3 -4.1 4.6 l-3.8 0.3 0.3 -4.3z"/>
  <path d="M239.7 242.3 c-0.4 -0.3 -0.7 -2.4 -0.7 -4.5 0 -3.7 0.1 -3.8 3.4 -3.8 3.7 0 4.6 1.2 4.6 6.1 0 2.6 -0.3 2.9 -3.3 2.9 -1.9 0 -3.7 -0.3 -4 -0.7z"/>
  <path d="M298.3 186.6 c-6.9 -3.7 -11.3 -6.7 -11.3 -7.7 0 -1.1 2.1 -2 7.3 -3.3 50.2 -12.2 117.4 -18.6 196.5 -18.6 l33.2 0 0 -2.7 0 -2.6 14.3 0.6 c7.8 0.4 18.1 0.7 23 0.7 l8.7 0 0 3 0 3 -8.5 0 c-6.9 0 -8.5 0.3 -8.5 1.5 0 0.8 0.5 1.5 1 1.5 0.6 0 1 0.4 1 0.9 0 0.4 -17.7 1.1 -39.2 1.4 -48.3 0.7 -74.6 2.6 -111.8 7.8 -28.4 4 -66.3 12.7 -81.9 18.8 -8 3.2 -11.2 2.7 -23.8 -4.3z"/>
 </g>
 <g fill="#8f9398">
  <path d="M40.6 382.5 c0.4 -0.8 1 -1.5 1.5 -1.5 0.5 0 0.9 0.7 0.9 1.5 0 0.8 -0.7 1.5 -1.5 1.5 -0.9 0 -1.2 -0.6 -0.9 -1.5z"/>
  <path d="M160 381.8 c0 -1.2 2.7 -5.4 6.1 -9.5 6.4 -7.8 54 -55.4 60.1 -60 1.9 -1.6 11.1 -9.9 20.4 -18.5 19.8 -18.4 26.1 -23.5 44.9 -36.2 21.1 -14.2 54.8 -31 77.8 -38.6 3.8 -1.2 6.7 -2.4 6.5 -2.6 -0.4 -0.4 -21.1 6 -26.3 8.2 -1.6 0.6 -4.1 1.5 -5.5 1.9 -1.4 0.3 -4.4 1.5 -6.7 2.6 -2.4 1 -4.7 1.9 -5.2 1.9 -0.5 0 -3.4 1.1 -6.5 2.5 -3.1 1.4 -7.2 2.5 -9.1 2.5 l-3.5 0 0 -9.8 c0 -5.5 -0.3 -14.7 -0.7 -20.5 -0.6 -10.6 -0.6 -10.7 1.8 -11.6 2.4 -1 2.4 -1 0.2 -1 -1.3 -0.1 -2.3 -0.7 -2.3 -1.4 0 -1.4 14.9 -6.8 31 -11.1 22.1 -6 57.4 -12.1 83.5 -14.6 15.8 -1.5 15.8 -1.5 11.5 -5.2 -1.9 -1.7 -2.6 -2.6 -1.5 -2 1.1 0.6 2.9 2 4 3.2 1.9 2.1 2.5 2.2 11.9 1.5 6.8 -0.5 10.1 -0.3 10.6 0.4 0.4 0.8 1.6 0.7 3.8 -0.4 2.1 -1.1 5.9 -1.6 11.9 -1.6 4.8 0 12.9 -0.1 17.8 -0.2 5 -0.1 23.5 -0.1 41.3 0.1 l32.2 0.2 0 13.5 0 13.5 -3 0 c-2.4 0 -3 0.4 -3.1 2.3 0 2.1 -0.1 2.1 -0.8 0.2 -0.8 -1.9 -1.6 -2 -13.2 -1.7 -15.4 0.4 -17.9 0.8 -17.9 3.2 0 1.5 -1.2 1.9 -9.1 2.5 -7.9 0.6 -9.3 0.5 -10.1 -0.9 -1.2 -2.1 -5.1 -2.1 -23.4 0.4 -26.9 3.6 -51.9 8.7 -78.3 16.1 -5.7 1.6 -10.5 3 -10.6 3.1 0 0.2 -0.6 1.4 -1.2 2.8 -0.8 2 -2.8 3.1 -9.4 5.2 -7.4 2.5 -8.5 2.6 -9.5 1.3 -0.6 -0.8 -1.9 -1.5 -2.8 -1.5 -2.5 0 -25.1 9.3 -41.1 16.9 -22.9 11 -52.2 28.8 -54.5 33.1 -0.5 1 -3.9 4.1 -7.5 7 -5.6 4.5 -6.5 5.6 -6.5 8.4 0 2.8 -1.1 4.2 -7.7 10.2 -4.3 3.8 -7.9 7.2 -8.1 7.6 -0.6 1.4 -3.2 0.8 -3.2 -0.6 0 -0.8 -0.4 -1.8 -1 -2.1 -2.2 -1.4 -81.8 78.4 -80.4 80.6 0.3 0.5 -1.3 0.9 -3.5 0.9 -3.5 0 -4.1 -0.3 -4.1 -2.2z m209.5 -185.3 c3.8 -0.9 7.6 -2.1 8.5 -2.6 1.3 -0.9 1.3 -1 0 -0.6 -0.8 0.2 -5.1 1.2 -9.5 2.2 -4.4 1 -8.4 2.3 -9 2.8 -0.6 0.6 -0.3 0.7 1 0.3 1.1 -0.3 5.1 -1.3 9 -2.1z"/>
  <path d="M64.5 359 c0.3 -0.5 1.9 -1.9 3.5 -3 l3 -2.1 0 3 c0 2.9 -0.3 3.1 -3.6 3.1 -2 0 -3.3 -0.4 -2.9 -1z"/>
  <path d="M132.5 300 c0.3 -0.5 1.9 -1.9 3.5 -3 l3 -2.1 0 3 c0 2.9 -0.3 3.1 -3.6 3.1 -2 0 -3.3 -0.4 -2.9 -1z"/>
  <path d="M177.8 268.8 c1.6 -1.6 1.5 -4.5 0 -5.1 -0.7 -0.3 0.2 -0.6 2 -0.6 3 -0.1 3.2 0.1 3.2 3.4 0 3.3 -0.2 3.5 -3.2 3.5 -2.5 0 -2.9 -0.3 -2 -1.2z"/>
  <path d="M224 237 c0 -1.6 0.5 -3 1 -3 0.6 0 1 0.5 1 1 0 0.6 1.1 1 2.5 1 1.8 0 2.5 0.5 2.5 2 0 1.6 -0.7 2 -3.5 2 -3.2 0 -3.5 -0.2 -3.5 -3z"/>
  <path d="M255 224.7 l-11.5 -3.2 -0.3 -6.4 c-0.2 -5.2 0.2 -7.3 2.3 -11.7 1.5 -3 3.6 -5.9 4.7 -6.5 1.3 -0.7 6.1 -1 12.7 -0.7 9 0.3 11.3 0.7 15.1 2.8 l4.5 2.5 0.3 6.8 c0.3 6.3 0 7.4 -3.3 13.3 l-3.6 6.4 -4.7 -0.1 c-2.6 0 -9.9 -1.5 -16.2 -3.2z"/>
  <path d="M554 154 c0 -1.6 0.7 -2 3.5 -2 2.8 0 3.5 0.4 3.5 2 0 1.6 -0.7 2 -3.5 2 -2.8 0 -3.5 -0.4 -3.5 -2z"/>
 </g>
 <g fill="#34b7c3">
  <path d="M178.9 267.6 c0.9 -1.1 0.8 -1.7 -0.4 -2.9 -1.8 -1.8 -1.9 -2.7 -0.4 -2.7 0.6 0 1.6 -0.6 2.4 -1.2 2.7 -2.7 5.3 -4.4 10 -6.8 2.7 -1.4 5.8 -3.3 6.9 -4.2 1.1 -1 3.5 -1.8 5.3 -1.8 3.1 0 3.3 0.2 3.3 3.5 0 2.9 -0.5 3.8 -2.7 4.8 -1.6 0.6 -3.5 1.8 -4.3 2.6 -0.8 0.7 -2.9 2 -4.7 2.8 -1.9 0.7 -4.2 2.2 -5.3 3.3 -1.1 1.1 -2.7 2 -3.5 2 -0.8 0 -1.5 0.5 -1.5 1 0 0.6 -1.4 1 -3.1 1 -2.6 0 -2.9 -0.3 -2 -1.4z"/>
  <path d="M266.5 255 c-3.3 -1 -11.3 -3.4 -17.8 -5.3 -6.5 -1.9 -12.1 -3.8 -12.4 -4.1 -0.4 -0.4 -0.9 -3.3 -1.1 -6.5 -0.4 -5.2 -0.2 -6 1.7 -7 1.8 -1 2.1 -2.1 2.1 -7.6 0 -19.4 8.5 -33.3 25.3 -41.5 16.7 -8 21.3 -8 37 0.5 6.6 3.6 12.9 6.5 13.9 6.5 3.2 0 2.2 3.8 -1.2 4.5 -6.9 1.5 -19.7 12.1 -23.5 19.4 l-1.5 3 3.5 -2 c4.1 -2.4 17.9 -6.9 21.3 -6.9 2.2 0 2.2 0.2 2.2 12.6 0 10.8 0.2 12.5 1.5 12 1.1 -0.4 1.5 0.1 1.5 1.8 0 1.9 -1.9 3.2 -12.2 8.4 -6.8 3.4 -15 7.9 -18.3 10.1 -7 4.7 -11.9 5.2 -22 2.1z m-4.4 -22.8 c2.4 -1.6 5.3 -3.9 6.3 -5 1.1 -1.2 2.5 -2.2 3.2 -2.2 2.1 0 8.4 -12.2 8.4 -16.2 0 -4.4 -2 -6.2 -9.6 -8.9 -6.1 -2.2 -13.2 -2.2 -17.3 0 -1.1 0.6 -3.2 3.6 -4.7 6.6 -2.2 4.6 -2.6 6.4 -2.1 10.5 0.3 2.7 1.3 6.4 2.3 8.2 1.6 3.3 7.2 9.8 8.4 9.8 0.3 0 2.6 -1.3 5.1 -2.8z"/>
  <path d="M216 241.5 c0 -2.4 0.5 -3.5 1.5 -3.5 0.8 0 1.5 -0.4 1.5 -1 0 -0.5 1.6 -1 3.5 -1 3.3 0 3.5 0.2 3.5 3.5 0 2.4 -0.5 3.5 -1.5 3.5 -0.8 0 -1.5 0.5 -1.5 1 0 0.6 -1.6 1 -3.5 1 -3.3 0 -3.5 -0.2 -3.5 -3.5z"/>
  <path d="M524.4 155.1 c-0.2 -0.2 -0.4 -1 -0.4 -1.8 0 -1 3.3 -1.3 16 -1.3 15.4 0 16 0.1 16 2 0 2 -0.5 2 -15.6 1.8 -8.6 -0.2 -15.8 -0.5 -16 -0.7z"/>
 </g>
 <g fill="#5bb687">
  <path d="M179.6 266.8 c1 -1.3 1.5 -2 1 -1.6 -0.4 0.4 -1.3 0.2 -2 -0.3 -0.6 -0.5 -1.9 -1.5 -2.9 -2.2 -1.5 -1 -1.9 -2.9 -2.2 -9.3 -0.3 -8.8 0.3 -10.2 5.2 -12.7 1.7 -0.9 3.5 -2.6 3.8 -3.8 0.4 -1.1 2.2 -2.7 4.1 -3.5 1.9 -0.8 3.4 -1.9 3.4 -2.4 0 -1.8 2.6 -1 5 1.5 1.3 1.4 4.1 3.1 6.3 3.7 2.1 0.6 4.6 2.2 5.6 3.4 1.6 2.1 2.1 2.2 4.5 1.1 1.4 -0.7 2.6 -1.5 2.6 -1.9 0 -0.5 0.5 -0.8 1 -0.8 0.6 0 2.8 -1.1 5 -2.5 4.8 -3 5.6 -3.1 6.3 -0.5 0.3 1.3 1 1.8 2.1 1.4 1.1 -0.4 1.6 0 1.6 1.4 0 2 -7.3 7.2 -10.2 7.2 -0.7 0 -1.9 0.9 -2.6 2 -0.7 1.1 -1.9 2 -2.7 2 -0.8 0 -1.5 0.4 -1.5 0.9 0 0.5 -0.9 1.3 -2.1 1.6 -1.2 0.4 -5.5 2.9 -9.8 5.6 -4.2 2.7 -8.4 4.9 -9.3 4.9 -1 0 -1.8 0.4 -1.8 1 0 1.6 -7.3 6 -9.9 6 -2.4 0 -2.4 0 -0.5 -2.2z"/>
  <path d="M537.3 155.2 c-11.2 -0.2 -13.3 -0.5 -13.3 -1.8 0 -2.7 2 -5.4 6 -7.9 2.1 -1.3 4.1 -3.4 4.5 -4.5 0.4 -1.3 1.8 -2.3 3.6 -2.7 1.6 -0.3 2.9 -1.2 2.9 -1.9 0 -2.3 3.3 -1.5 7 1.6 1.9 1.7 4.4 3 5.5 3 3.1 0 6.5 4.1 6.5 7.8 0 3.2 0 3.2 5 3.2 4.4 0 5 0.3 5 2 0 2 -0.5 2.1 -9.7 1.8 -5.4 -0.2 -15.8 -0.4 -23 -0.6z"/>
 </g>
 <g fill="#82868b">
  <path d="M44.5 378 c0.3 -0.5 1.9 -1.9 3.5 -3 l3 -2.1 0 3 c0 2.9 -0.3 3.1 -3.6 3.1 -2 0 -3.3 -0.4 -2.9 -1z"/>
  <path d="M64.5 359.3 l5 -4.6 0.3 2.7 c0.5 3.9 -2.3 6.6 -6.7 6.6 l-3.6 -0.1 5 -4.6z"/>
  <path d="M94 331.9 c4.1 -3.9 8.8 -7.9 10.3 -9.1 l2.8 -2 -0.3 3.3 c-0.3 3.1 -0.6 3.4 -4 3.7 -3.4 0.3 -3.8 0.6 -3.8 3.1 0 4 -4.7 8.1 -9.1 8.1 l-3.4 -0.1 7.5 -7z"/>
  <path d="M127 304.6 c0 -0.6 16.3 -13.3 24.3 -19 l6.7 -4.8 0 3.1 c0 2.1 -0.5 3.1 -1.5 3.1 -0.8 0 -1.5 0.5 -1.5 1 0 0.6 -0.9 1 -2 1 -1.1 0 -2 0.7 -2 1.5 0 0.8 -0.6 1.5 -1.4 1.5 -0.8 0 -1.6 0.7 -2 1.5 -0.3 0.8 -1.5 1.5 -2.6 1.5 -1.1 0 -2 0.7 -2 1.5 0 0.9 -0.9 1.5 -2.5 1.5 -1.9 0 -2.5 0.5 -2.5 2.1 0 1.2 -0.8 2.3 -2 2.6 -1.1 0.3 -2 0.9 -2 1.4 0 0.5 -1.6 0.9 -3.5 0.9 -1.9 0 -3.5 -0.2 -3.5 -0.4z"/>
  <path d="M249 303.2 c0 -0.9 0.9 -2.3 2 -3 1.8 -1.1 2 -1 2 1.8 0 2.3 -0.4 3 -2 3 -1.2 0 -2 -0.7 -2 -1.8z"/>
  <path d="M258 293.9 c2.5 -2.2 5.8 -4.9 7.3 -6.1 l2.8 -2 -0.3 3.3 c-0.2 2.8 -0.7 3.5 -3 3.7 -1.9 0.2 -2.8 1 -3 2.5 -0.2 1.8 -1 2.2 -4.3 2.5 l-4 0.2 4.5 -4.1z"/>
  <path d="M181.3 265.5 c3.6 -3.2 4.7 -3.1 4.7 0 0 2.2 -0.4 2.5 -3.7 2.5 l-3.8 -0.1 2.8 -2.4z"/>
  <path d="M203 251.5 c1.3 -1.4 2.9 -2.5 3.7 -2.5 0.7 0 1.3 1.1 1.3 2.5 0 2.2 -0.4 2.5 -3.7 2.5 l-3.6 0 2.3 -2.5z"/>
  <path d="M221 241.4 c0 -0.4 0.8 -1.3 1.8 -2 1.6 -1.3 1.6 -1.4 0 -0.8 -2.3 0.8 -2.5 -3.1 -0.2 -4 2.7 -1.1 3.6 -0.7 3.1 1.4 -0.4 1.6 -0.2 1.8 1.3 1 2.7 -1.4 3 -1.3 3 1.4 0 1.3 -0.7 2.7 -1.6 3 -2.1 0.8 -7.4 0.8 -7.4 0z"/>
  <path d="M317 233.9 c0 -0.5 2.3 -2 5.1 -3.1 l5.2 -2.2 -0.8 -17 c-0.4 -9.4 -0.8 -17.2 -0.9 -17.4 -0.9 -0.8 -10 3.6 -10.4 5.1 -0.8 3.2 -3.2 1.9 -3.2 -1.8 0 -3.3 0.2 -3.5 4 -4.1 2.2 -0.4 4 -1 4 -1.5 0 -0.5 1.4 -0.9 3 -0.9 1.7 0 3 -0.4 3 -1 0 -0.5 1.4 -1 3 -1 2.7 0 3 -0.3 2.4 -2.4 -0.5 -2.1 -0.1 -2.5 2.6 -3.1 2.2 -0.5 3.5 -0.3 4 0.5 0.9 1.4 11 0.4 11 -1.1 0 -0.5 1.6 -0.9 3.5 -0.9 2.4 0 3.5 0.5 3.5 1.5 0 0.8 -1.4 1.7 -3.5 2.1 l-3.5 0.6 -0.1 9.7 c0 6.3 -0.3 8.9 -0.9 7.6 -0.5 -1.1 -0.9 -5.3 -0.9 -9.3 -0.1 -7.1 -0.2 -7.3 -2.3 -6.6 -7 2.1 -6.5 0.4 -6 19.1 0.2 9.2 0.5 16.9 0.7 17.1 0.1 0.1 1.9 -0.4 4.1 -1.1 3.6 -1.3 3.9 -1.7 4.4 -5.8 l0.5 -4.4 0.8 3.8 c0.5 2.2 1.4 3.7 2.2 3.7 0.8 0 1.5 0.7 1.5 1.5 0 0.9 -0.9 1.5 -2.5 1.5 -1.5 0 -2.5 0.6 -2.5 1.5 0 1 -1.4 1.7 -4 2.1 -2.2 0.4 -4 1 -4 1.5 0 0.4 -2.5 1.3 -5.5 1.9 -3 0.6 -5.5 1.6 -5.5 2.1 0 0.5 -1.1 0.9 -2.5 0.9 -1.4 0 -2.5 0.5 -2.5 1 0 0.6 -1.6 1 -3.5 1 -1.9 0 -3.5 -0.5 -3.5 -1.1z m16.4 -7.4 l3.6 -1.5 0 -17.4 0 -17.5 -2.7 0.9 c-6.7 2 -6.3 1.1 -6.3 15 0 11 0.8 22 1.5 22 0.1 0 1.9 -0.7 3.9 -1.5z"/>
  <path d="M330 211.8 c0 -2.5 0.3 -2.9 1 -1.8 0.7 1.1 1 0.3 1 -2.8 0 -2.6 -0.4 -4.1 -1 -3.7 -0.6 0.3 -1 -0.5 -1 -1.9 0 -2.6 3.2 -5.2 5 -4.1 1.4 0.9 1.3 14.8 -0.2 16.3 -0.7 0.7 -2 1.2 -3 1.2 -1.4 0 -1.8 -0.8 -1.8 -3.2z"/>
  <path d="M263.3 227.3 c-1.3 -0.2 -2.3 -0.9 -2.3 -1.4 0 -0.5 -1.4 -0.9 -3 -0.9 -1.7 0 -5.7 -0.7 -9 -1.7 -5.8 -1.6 -6 -1.7 -6 -5 0 -3.6 2.4 -4.7 3.2 -1.5 0.4 1.4 3.4 2.6 12.5 5 6.6 1.8 12.5 3.2 13.1 3.2 0.6 0 2.7 -2.9 4.7 -6.5 5.1 -9 4.7 -13 -1.4 -16.4 -3.1 -1.7 -6.5 -2.6 -11.8 -2.9 -6.5 -0.4 -7.3 -0.7 -7.3 -2.5 0 -1.9 0.4 -2 7.3 -1.4 3.9 0.4 9.3 1.4 12 2.3 3.8 1.3 4.7 2 4.7 3.9 0 1.5 0.7 2.5 2.1 2.8 1.9 0.5 2.1 1 1.4 4.4 -0.9 5.2 -7.3 16.4 -9.6 17 -1.1 0.3 -1.9 0.9 -1.9 1.4 0 0.9 -4.6 1 -8.7 0.2z"/>
  <path d="M380.7 224.3 c-1.6 -1.5 -0.5 -3 2.8 -4 3.3 -1 3.5 -1 3.5 1.2 0 1.5 -0.7 2.5 -2.2 2.9 -2.9 0.7 -3.3 0.7 -4.1 -0.1z"/>
  <path d="M377 219.1 c0 -1 3.5 -2.1 6.5 -2 1.3 0 0.8 0.5 -1.5 1.4 -4.3 1.7 -5 1.7 -5 0.6z"/>
  <path d="M395 217.6 c0 -0.7 1 -1.6 2.2 -1.9 2.7 -0.7 3 -0.5 2.2 1.7 -0.7 1.9 -4.4 2.2 -4.4 0.2z"/>
  <path d="M365 216.6 c0 -0.8 4.1 -2.5 11.6 -4.7 10.6 -3.1 11.8 -3.7 13 -6.4 1.2 -2.6 1.3 -2.7 1.4 -0.7 0 1.2 0.5 2.2 1 2.2 0.6 0 1 0.9 1 2 0 1.4 -0.7 2 -2.4 2 -1.3 0 -2.6 0.5 -2.8 1.1 -0.2 0.6 -2.5 1.3 -5.1 1.6 -2.6 0.3 -4.7 0.9 -4.7 1.3 0 0.9 -7.1 3 -10.4 3 -1.5 0 -2.6 -0.6 -2.6 -1.4z"/>
  <path d="M244.2 209.8 c1.4 -6.2 4.5 -10.8 7.3 -10.8 l2.4 0 -2.5 2.7 c-1.3 1.4 -3.2 4.8 -4.2 7.5 -2.2 6.2 -4.4 6.6 -3 0.6z"/>
  <path d="M395 213 c0 -0.5 1.4 -1 3.2 -1 3.6 0 3.5 0.4 -0.4 1.4 -1.7 0.4 -2.8 0.2 -2.8 -0.4z"/>
  <path d="M312 207.4 c0 -4.8 2.3 -6.3 3.4 -2.1 1 3.9 0.7 5.5 -1.4 6 -1.8 0.5 -2 0 -2 -3.9z"/>
  <path d="M340.2 203.8 c0.3 -7.7 0.5 -8.3 2.6 -8.6 2.1 -0.3 2.2 0 2.1 5 -0.1 2.9 -0.4 4.1 -0.6 2.6 -0.6 -4 -2.3 -3.4 -2.3 0.7 0 2.4 0.5 3.5 1.5 3.5 2 0 1.9 3.6 -0.1 4.4 -3.2 1.2 -3.5 0.5 -3.2 -7.6z"/>
  <path d="M395 207.6 c0 -0.8 1.1 -1.6 2.3 -2 2.3 -0.5 2.4 -1.2 3 -10.3 0.4 -5.4 0.7 -11.9 0.7 -14.5 0 -4.6 -0.1 -4.8 -2.9 -4.8 -5.9 0 -6.1 0.3 -6.1 11.4 0 15.4 -1.4 17.2 -2 2.5 l-0.5 -12.5 -10 1.9 c-6.9 1.3 -10 1.6 -10.3 0.8 -0.2 -0.7 -2.2 -0.9 -5.8 -0.5 -4.5 0.6 -5.4 0.4 -5.4 -0.9 0 -1.6 1.7 -2.1 18.5 -5.2 6.3 -1.2 9 -1.4 9.3 -0.6 0.5 1.6 4 1.3 5 -0.4 0.5 -1.1 3.9 -2.1 10.3 -3 11.6 -1.8 10.9 -1.8 10.9 0 0 0.8 0.5 1.5 1 1.5 0.6 0 1 -0.6 1 -1.4 0 -1.9 6 -3.2 7 -1.6 0.5 0.9 0.9 0.9 1.1 0.1 0.2 -0.6 2.1 -1.4 4.1 -1.7 3.1 -0.5 3.7 -0.3 4.3 1.6 0.4 1.2 0.5 2.4 0.2 2.6 -0.2 0.3 -3.5 1 -7.3 1.6 -5.1 0.8 -6.9 0.7 -7.2 -0.1 -0.3 -0.8 -0.9 -0.6 -1.8 0.6 -1 1.3 -1.3 5.4 -1.4 15.1 0 7.2 0.3 13.2 0.8 13.2 0.4 0 7.4 -1.5 15.6 -3.4 l14.9 -3.3 -0.1 -9.9 c-0.1 -6.6 0.2 -9.2 0.8 -7.9 0.5 1.1 0.9 5.5 0.9 9.8 l0.1 7.8 4.5 -0.7 c4.2 -0.6 4.5 -0.5 4.5 1.6 0 2.2 -0.3 2.3 -6 1.7 -4.9 -0.6 -6 -0.4 -6 0.8 0 0.8 -0.8 1.5 -1.7 1.5 -1 0 -9.2 1.8 -18.2 4 -9 2.2 -17.4 4 -18.7 4 -1.3 0 -2.4 0.5 -2.4 1 0 0.6 -1.6 1 -3.5 1 -2.3 0 -3.5 -0.5 -3.5 -1.4z m12.3 -4.7 l3.7 -1 0 -14.1 0 -14 -3.7 0.7 c-2.1 0.4 -4.1 0.9 -4.5 1.1 -1 0.7 -1 28.4 0 28.4 0.4 0 2.4 -0.5 4.5 -1.1z"/>
  <path d="M404.7 195.3 c-0.4 -0.3 -0.7 -3.4 -0.7 -6.8 0 -6.7 1.7 -10.2 4.4 -9.2 2.3 0.9 2.3 12.8 0 15.1 -1.7 1.7 -2.7 2 -3.7 0.9z"/>
  <path d="M355.7 202.3 c-1.2 -1.1 -0.8 -6.1 0.6 -7 1.4 -0.9 22.5 -6.2 25 -6.3 3 0 2.1 3.8 -1 4.3 l-2.8 0.4 2.8 0.2 c3.1 0.1 3.6 1.6 1 3 -1.7 0.8 -22.5 6.1 -24.2 6.1 -0.4 0 -1.1 -0.3 -1.4 -0.7z"/>
  <path d="M394.3 196.8 c-1.1 -1.9 -0.3 -14.2 1.1 -15 2.1 -1.4 3.6 -0.8 3.6 1.3 0 1.2 -0.8 2.3 -2 2.6 -2.1 0.5 -3 5.3 -1 5.3 0.6 0 1 -0.4 1 -1 0 -0.5 0.5 -1 1 -1 0.6 0 1 1.6 1 3.5 0 3.8 -3.1 6.7 -4.7 4.3z"/>
  <path d="M512.7 195 c-0.4 -1.5 0 -2 1.4 -2 1.2 0 1.9 0.7 1.9 2 0 1.1 -0.6 2 -1.4 2 -0.7 0 -1.6 -0.9 -1.9 -2z"/>
  <path d="M456 194.6 c0 -1.4 1.4 -1.9 9.8 -3.1 3.7 -0.6 4.2 -0.5 4.2 1.3 0 1.5 -0.9 2.1 -4.6 2.6 -7.2 0.9 -9.4 0.8 -9.4 -0.8z"/>
  <path d="M517 194.6 c0 -1.3 2.8 -2.6 5.8 -2.6 0.6 0 1.2 0.9 1.2 2 0 1.6 -0.7 2 -3.5 2 -2.3 0 -3.5 -0.5 -3.5 -1.4z"/>
  <path d="M472 192.7 c0 -0.9 1.3 -1.8 3 -2.2 l3 -0.7 0.1 -8.6 c0.1 -10.4 1.7 -8.4 1.8 2.2 0.1 6.6 0.2 6.8 2.4 6.2 1.2 -0.3 2.8 -0.6 3.5 -0.6 0.8 0 1.2 -2.6 1.3 -9.2 l0.2 -9.3 0.9 9 c0.5 4.9 1.1 9.1 1.3 9.3 0.2 0.3 1.6 0.2 3 -0.2 2.2 -0.6 2.5 -1.2 2.5 -5 0 -3.9 -0.2 -4.4 -2 -3.9 -1.8 0.5 -2 0 -2 -3.9 0 -5 0.7 -6.3 2.7 -4.7 1 0.9 1.3 0.5 1.3 -2 0 -1.7 -0.4 -3.1 -1 -3.1 -0.5 0 -1 -0.6 -1 -1.4 0 -1.6 2.1 -2.2 10.8 -3.2 5.8 -0.6 6.2 -0.5 6.2 1.4 0 1.7 -0.9 2.1 -6.5 2.7 l-6.5 0.7 0 10.9 c0 9 0.3 10.9 1.5 10.9 0.8 0 1.5 0.7 1.5 1.5 0 1.6 -5.8 3 -9 2.2 -1 -0.3 -2 -0.1 -2.2 0.3 -0.2 0.4 -4 1.1 -8.5 1.5 -7.1 0.6 -8.3 0.5 -8.3 -0.8z"/>
  <path d="M505.8 191.3 c-4.2 -0.5 -5.2 -2.7 -1.5 -3.7 3.5 -0.9 4.7 -0.7 4.7 0.9 0 0.8 0.5 1.5 1 1.5 0.6 0 1 -0.6 1 -1.4 0 -1.5 3 -2.6 7.3 -2.6 1.7 0 2.7 0.5 2.7 1.5 0 0.8 0.8 1.5 1.8 1.6 3.3 0.1 -2.2 1.7 -6 1.7 -2 0 -4.4 0.2 -5.4 0.4 -1.1 0.2 -3.6 0.3 -5.6 0.1z"/>
  <path d="M525 187.6 c0 -1.5 2.6 -2.2 9.5 -2.8 2.2 -0.2 3.1 -0.9 3.5 -2.8 l0.6 -2.5 0.7 2.8 c0.6 2.2 1.3 2.8 3 2.5 2.1 -0.3 2.2 -0.8 2.5 -10 l0.3 -9.8 -3 0 c-2.8 0 -3 0.2 -2.9 3.5 0.1 1.9 -0.2 3.8 -0.5 4.2 -0.4 0.3 -0.7 -1.5 -0.7 -4 0 -4.3 0.2 -4.7 2.5 -4.7 1.4 0 2.5 -0.4 2.5 -1 0 -0.6 3 -1 7 -1 5.6 0 7 0.3 7 1.5 0 0.8 -0.7 1.5 -1.5 1.5 -1.2 0 -1.5 1.7 -1.5 9.5 0 7.8 0.3 9.5 1.5 9.5 0.8 0 1.5 0.7 1.5 1.5 0 1.8 -3 2.2 -19.2 3 -10.9 0.4 -12.8 0.3 -12.8 -0.9z m27 -13.1 c0 -9.5 0 -9.5 -2.5 -9.5 -2.5 0 -2.5 0 -2.5 9.5 0 9.5 0 9.5 2.5 9.5 2.5 0 2.5 0 2.5 -9.5z"/>
  <path d="M548 174.1 c0 -1.1 0.6 -2.2 1.3 -2.4 1 -0.4 1 -0.6 0 -0.6 -0.7 -0.1 -1.3 -1 -1.3 -2.2 0 -3.9 2.5 -1.3 2.8 2.9 0.2 3.3 0 4.2 -1.2 4.2 -0.9 0 -1.6 -0.8 -1.6 -1.9z"/>
  <path d="M420 186.6 c0 -0.8 -0.5 -1.6 -1.2 -1.8 -0.6 -0.2 -0.9 -1.1 -0.6 -1.9 0.4 -1 3.1 -2 7.6 -2.7 8.9 -1.5 9.2 -1.5 9.2 0.2 0 0.8 0.5 1.6 1.2 1.8 0.6 0.2 0.9 1.1 0.6 1.9 -0.4 1 -3.1 2 -7.6 2.7 -8.9 1.5 -9.2 1.5 -9.2 -0.2z"/>
  <path d="M452.6 180.5 c-1.2 -3.3 7.4 -6.6 8.7 -3.2 0.4 0.9 0.8 0.9 1.5 -0.2 0.5 -0.7 2.7 -1.4 4.8 -1.5 3.5 -0.1 3.9 0.1 3.9 2.4 0 1.8 -0.6 2.6 -2.2 2.8 -1.4 0.2 -2.3 -0.2 -2.3 -1 0 -1 -0.2 -1.1 -0.8 0 -1.3 2 -8.2 2.8 -9.3 1.1 -0.6 -1 -0.9 -1 -0.9 -0.1 0 1.7 -2.7 1.5 -3.4 -0.3z"/>
  <path d="M481.4 179.6 c-0.9 -2.3 0 -7.9 1.3 -8.3 1.4 -0.5 2.7 4.9 1.8 7.7 -0.7 2.3 -2.3 2.6 -3.1 0.6z"/>
  <path d="M505.7 177.6 c-1.1 -2.9 0.3 -4.3 5 -5 8.6 -1.1 11.3 -0.8 11.3 1.4 0 1.3 -0.7 2 -1.9 2 -1.1 0 -2.1 0.5 -2.3 1.2 -0.2 0.6 -2.9 1.3 -6 1.6 -4.4 0.3 -5.6 0.1 -6.1 -1.2z"/>
  <path d="M524 176 c0 -1.3 0.7 -2 2 -2 1.3 0 2 0.7 2 2 0 1.3 -0.7 2 -2 2 -1.3 0 -2 -0.7 -2 -2z"/>
  <path d="M541 171.4 c0 -5.9 2.4 -5.5 2.8 0.4 0.2 3.3 0 4.2 -1.2 4.2 -1.2 0 -1.6 -1.1 -1.6 -4.6z"/>
  <path d="M560 173.5 c0 -1.8 0.5 -2.5 2 -2.5 1.5 0 2 0.7 2 2.5 0 1.8 -0.5 2.5 -2 2.5 -1.5 0 -2 -0.7 -2 -2.5z"/>
  <path d="M444.1 172.2 c-0.1 -2.2 -3.2 -4.7 -4 -3.3 -0.4 0.6 -2.4 1.4 -4.4 1.8 -3.5 0.5 -3.7 0.4 -3.7 -2 0 -3.2 2.3 -3.8 16.3 -4.1 5.7 -0.1 10.8 -0.6 11.5 -1 1.9 -1.2 11.2 0.5 11.2 2 0 1.5 -0.5 1.6 -8 2 -2.5 0.2 -6.7 0.5 -9.5 0.8 -2.7 0.2 -5.6 0.5 -6.3 0.5 -0.7 0.1 -1.7 1.1 -2.2 2.4 -0.5 1.2 -0.9 1.6 -0.9 0.9z"/>
  <path d="M478.1 168.7 c0 -1 -0.8 -2 -1.6 -2.3 -2.2 -0.9 -1.8 -3.1 0.8 -3.8 3.6 -0.9 12.7 0.5 12.7 2 0 0.8 -0.4 1.4 -1 1.4 -0.5 0 -1 1 -1.1 2.3 l0 2.2 -0.9 -2.2 c-0.5 -1.3 -1.5 -2.3 -2.2 -2.3 -3 0 -5.7 1.3 -6.1 2.9 -0.4 1.4 -0.5 1.4 -0.6 -0.2z"/>
 </g>
 <g fill="#7b7e83">
  <path d="M256 347.1 c-5.3 -0.4 -8 -0.9 -7.2 -1.5 1.1 -0.6 1.3 -5.2 1.1 -22.4 l-0.3 -21.7 8.4 -7.2 c4.6 -4 8.8 -7.3 9.2 -7.3 0.4 0 0.8 13.1 0.8 29 0 24.9 0.2 29.1 1.5 29.6 0.8 0.4 1.5 1 1.5 1.5 0 0.9 -0.5 0.9 -15 0z"/>
  <path d="M379 295 c0 -0.5 0.5 -1 1.1 -1 0.8 0 1 -10.5 0.8 -36.1 l-0.4 -36.1 3 -1.2 c1.7 -0.7 5.8 -1.6 9.3 -1.9 l6.2 -0.7 0 38 c0 24.7 0.4 38 1 38 0.6 0 1 0.5 1 1 0 0.6 -4.3 1 -11 1 -6.7 0 -11 -0.4 -11 -1z"/>
  <path d="M519.3 256.3 c-4.6 -0.2 -8.3 -0.8 -8.3 -1.3 0 -0.6 0.5 -1 1 -1 0.6 0 1 -10.9 1 -30.6 l0 -30.6 4 0.4 c2.2 0.2 4 0 4 -0.4 0 -0.5 1.8 -0.8 4 -0.8 3.6 0 4 0.3 4 2.4 0 1.3 0.5 2.6 1.1 2.8 0.7 0.2 1 9 0.9 28.6 -0.1 24.8 0.1 28.2 1.5 28.2 0.8 0 1.5 0.7 1.5 1.5 0 1.1 -0.9 1.4 -3.2 1.3 -1.8 -0.1 -7 -0.4 -11.5 -0.5z"/>
  <path d="M203.6 251.2 c1 -1 2.7 -2.1 3.7 -2.5 1.3 -0.5 1.7 -0.1 1.7 1.8 0 2.2 -0.4 2.5 -3.7 2.5 -3.6 0 -3.6 0 -1.7 -1.8z"/>
  <path d="M214.2 242.5 c-0.1 -2.8 0.2 -3.5 1.7 -3.5 1.1 0 2.1 -0.5 2.3 -1.1 0.2 -0.6 1.9 -0.9 3.7 -0.7 l3.4 0.3 -4.4 2.2 c-2.4 1.3 -3.7 2.3 -2.9 2.3 0.8 -0.1 2.4 -0.7 3.4 -1.5 2.8 -2.1 3.6 -1.9 3.6 1 0 1.8 -0.5 2.5 -2 2.5 -1.1 0 -2 0.5 -2 1 0 0.6 -1.5 1 -3.3 1 -3.2 0 -3.4 -0.2 -3.5 -3.5z"/>
  <path d="M315 234.9 c0 -0.5 1.7 -1.7 3.8 -2.5 2 -0.9 5.1 -2.2 6.7 -2.9 1.7 -0.8 4.9 -1.9 7.3 -2.6 5 -1.4 5.7 -3.1 4.8 -11.6 -0.3 -3.2 -0.5 -10.2 -0.6 -15.6 0 -11 0.4 -10.5 -7.5 -7.2 -1.6 0.7 -5.6 2.1 -8.7 3.1 -3.2 1 -5.9 2.5 -6.1 3.3 -0.3 0.9 -0.5 0.1 -0.6 -1.6 -0.1 -2.2 -0.6 -3.3 -1.6 -3.3 -3.6 0 -1 -2.7 4.5 -4.7 4.9 -1.7 6 -1.9 6 -0.7 0 0.8 0.1 1.4 0.3 1.4 0.1 0 3.1 -0.9 6.5 -2 3.5 -1.1 7.6 -2.1 9 -2.1 1.7 -0.1 2.1 -0.3 1 -0.6 -3.5 -0.9 -1.8 -3.1 3.3 -4.3 4.3 -1 5.3 -1 6 0.1 0.7 1.1 0.9 1.1 0.9 -0.3 0 -2 10.2 -4.8 10.8 -3 0.2 0.7 2.1 0.9 5.3 0.5 3.9 -0.5 4.9 -0.3 4.9 0.9 0 1.1 -4.1 2.5 -14.7 5.3 -8.2 2.1 -15.6 4.2 -16.7 4.7 -1.8 1 -1.8 2 -1.2 17.7 0.4 9.1 0.9 16.8 1.2 17 0.2 0.2 2 -0.3 4.1 -1 2.5 -1 4 -2.3 4.4 -3.9 0.5 -1.6 0.7 -1.9 0.8 -0.7 0.1 0.9 0.6 1.7 1.2 1.7 1 0 16.7 -4.8 35.2 -10.6 l4.7 -1.6 0.2 -8.6 0.2 -8.7 0.3 8.4 0.4 8.3 3.7 -0.7 c2 -0.3 4.2 -1.1 4.7 -1.6 0.6 -0.6 1.2 -7.6 1.3 -15.6 0.4 -13.3 0.2 -14.5 -1.3 -13.9 -0.9 0.3 -2.8 0.6 -4.2 0.6 -1.7 0 -2.7 0.7 -3 2 -0.5 1.8 -0.7 1.9 -1.7 0.5 -1 -1.3 -1.9 -1.4 -5.6 -0.6 -6.1 1.4 -7 1.4 -7 -0.5 0 -1.9 1.9 -3.9 4.5 -4.7 5.4 -1.7 30 -4.7 30.3 -3.7 0.3 0.7 0.9 0.7 1.9 -0.1 0.8 -0.7 3.4 -1.4 5.9 -1.6 2.4 -0.2 6.5 -0.6 9.1 -0.9 2.7 -0.3 7.7 -0.6 11.3 -0.7 3.6 -0.2 7.1 -0.6 7.7 -1 1.9 -1.2 8.3 0.3 8.3 1.9 0 1.2 -5.2 2.8 -7.5 2.4 -3.3 -0.7 -4.5 0.1 -4.6 3.3 -0.2 3 -0.2 3 -0.6 0.5 -0.3 -2.2 -1 -2.8 -3.1 -2.9 -1.5 -0.1 -3.1 0 -3.7 0.1 -0.5 0.1 -5.7 0.8 -11.5 1.6 -5.8 0.8 -11 1.6 -11.7 1.8 -0.6 0.3 -1.4 2.7 -1.6 5.3 l-0.3 4.8 -0.2 -4.7 c-0.2 -3.5 -0.6 -4.8 -1.7 -4.8 -0.8 0 -1.5 -0.6 -1.5 -1.2 0 -1 -0.2 -1 -0.8 -0.1 -0.4 0.6 -2 1.5 -3.5 1.8 l-2.7 0.7 0 14.4 c0 15.7 -0.2 15.2 6 13.5 1.7 -0.5 2.7 -1.6 3.1 -3.6 l0.7 -3 0.1 2.8 c0.1 2.5 0.4 2.7 2.9 2 1.5 -0.4 8.8 -2.1 16.2 -3.8 l13.5 -3.1 -0.2 -6.5 c-0.2 -4.6 0 -5.7 0.6 -3.9 0.5 1.4 0.9 4.2 1 6.4 l0.1 3.9 5 -0.7 c4.6 -0.6 5 -0.5 5 1.4 0 1.6 -0.6 2 -3 2 -4.6 0 -36.3 7.6 -57.5 13.8 -10.4 3 -20.6 5.7 -22.5 6 -1.9 0.2 -3.7 0.8 -4 1.1 -0.7 1 -27.1 10.1 -29.2 10.1 -0.9 0 -1.8 0.3 -2 0.8 -0.1 0.4 -4 2.2 -8.6 4 -8.4 3.2 -14.2 4.1 -14.2 2.1z"/>
  <path d="M257 225.7 c-6.3 -1.6 -12.1 -3.6 -12.8 -4.4 -1.6 -1.6 -1.2 -8.5 0.6 -9.1 0.8 -0.2 1.2 0.8 1.2 3.2 0 2 0.3 3.6 0.8 3.6 0.4 0 5.7 1.4 11.7 3 6.1 1.6 11.8 3 12.7 3 2.1 0 6.4 -6.5 8.5 -12.7 1.4 -3.9 1.3 -4.6 -0.1 -6.8 -1.6 -2.4 -1.6 -2.5 0.8 -2.5 3.1 0 4.1 2.7 2.7 7.5 -1.1 4 -5.8 12.5 -6.9 12.5 -0.4 0 -1.3 1.4 -1.9 3 -1.4 3.8 -2.4 3.7 -17.3 -0.3z"/>
  <path d="M377.6 219 c0.5 -0.5 2.5 -1.2 4.4 -1.5 l3.5 -0.5 -3.5 1.4 c-4.2 1.8 -5.8 2 -4.4 0.6z"/>
  <path d="M348.4 204.5 c0 -6.6 0.1 -9.2 0.3 -5.7 0.2 3.4 0.2 8.8 0 12 -0.2 3.1 -0.3 0.3 -0.3 -6.3z"/>
  <path d="M330.7 214.3 c-0.4 -0.3 -0.7 -3.7 -0.7 -7.3 0 -7 1.4 -9.8 4.3 -8.7 2 0.8 1.7 14.4 -0.3 15.7 -1.8 1.2 -2.5 1.2 -3.3 0.3z"/>
  <path d="M312 208.5 c0 -2.4 0.4 -3.5 1.5 -3.5 0.8 0 1.5 0.4 1.5 0.9 0 0.5 0.3 1.6 0.6 2.4 0.3 1 -0.3 2 -1.5 2.7 -1.9 1 -2.1 0.8 -2.1 -2.5z"/>
  <path d="M327.3 206.5 c0 -3.3 0.2 -4.5 0.4 -2.7 0.2 1.8 0.2 4.5 0 6 -0.2 1.5 -0.4 0 -0.4 -3.3z"/>
  <path d="M340.6 211.3 c-1.1 -1.2 -0.6 -13.9 0.6 -15.1 2.9 -2.9 3.8 -1.3 3.8 6.3 0 6.2 -0.3 7.6 -1.9 8.4 -1 0.6 -2.1 0.7 -2.5 0.4z"/>
  <path d="M246 205.3 c0 -2.1 4.6 -7.6 7.7 -9.2 2.4 -1.2 11.2 -1.5 16.2 -0.5 2.2 0.5 3.1 1.2 3.1 2.6 0 1.7 -0.4 1.8 -4.7 1.1 -6 -1 -12.7 -0.7 -15.2 0.7 -1.1 0.5 -2.8 2.4 -3.8 4 -1.9 3.4 -3.3 3.9 -3.3 1.3z"/>
  <path d="M356 199.2 l0 -4 12.7 -3.1 c7.7 -2 13 -2.8 13.5 -2.3 0.5 0.5 0.8 2.2 0.6 3.8 -0.3 2.8 -0.7 3 -10.8 5.6 -17.5 4.6 -16 4.6 -16 0z"/>
  <path d="M394.2 189.8 c0.3 -6.8 0.5 -7.3 2.6 -7.6 2.2 -0.3 2.3 -0.2 2 7 -0.3 6.8 -0.5 7.3 -2.6 7.6 -2.2 0.3 -2.3 0.2 -2 -7z"/>
  <path d="M458 194.7 c0 -1.6 1.8 -2.2 9.8 -3.3 4.9 -0.6 5.2 -0.5 5.2 1.5 0 1.5 -0.6 2.1 -2.2 2.1 -1.3 0 -4.7 0.3 -7.5 0.6 -4.4 0.6 -5.3 0.4 -5.3 -0.9z"/>
  <path d="M404.5 191.3 c0.4 -2.1 0.7 -5.4 0.7 -7.5 -0.1 -3.7 1.4 -5.3 3.8 -3.8 0.9 0.6 1.1 1.9 0.6 4.6 -0.4 2.2 -0.7 5.4 -0.7 7.2 0.1 2.8 -0.1 3.2 -2.5 3.2 -2.5 0 -2.6 -0.2 -1.9 -3.7z"/>
  <path d="M474 192.8 c0 -1.9 3 -3 8.5 -3.2 l4 -0.1 0.3 -11.8 0.3 -11.8 -3.8 0.3 -3.8 0.3 -0.6 9 -0.5 9 -0.2 -8.7 c-0.2 -7.3 -0.5 -8.8 -1.8 -8.8 -0.9 0 -1.4 -0.7 -1.2 -1.7 0.4 -2.2 8.9 -4.4 9.6 -2.5 0.2 0.7 1.7 1.2 3.3 1.2 1.6 0 2.9 0.5 2.9 1 0 0.6 -0.7 1 -1.5 1 -1.3 0 -1.5 1.7 -1.3 11.3 l0.3 11.2 3 0 3 0 0.6 -9.5 0.5 -9.5 0.2 9.3 c0.2 9.1 0.2 9.2 2.7 9.2 1.8 0 2.5 0.5 2.5 1.9 0 1.6 -1.1 1.9 -8.2 2.5 -4.6 0.3 -10.7 0.9 -13.5 1.2 -4.4 0.6 -5.3 0.4 -5.3 -0.8z"/>
  <path d="M506.8 191.2 c-4.2 -0.4 -5.2 -2.6 -1.5 -3.6 3.7 -1 5.7 -0.7 5.7 0.9 0 0.8 0.9 1.5 2 1.5 1.1 0 2 -0.6 2 -1.4 0 -1.6 3 -2.6 7.8 -2.6 2.2 0 3.2 0.5 3.2 1.5 0 0.8 0.5 1.5 1 1.5 0.6 0 1 -0.6 1 -1.4 0 -1.5 3 -2.6 7.3 -2.6 l2.7 0 0 -10 0 -10 -7.5 0 c-6.8 0 -7.5 -0.2 -7.5 -2 0 -1.9 0.7 -2 12.9 -2 16.8 0 25.1 0.9 25.1 2.6 0 1 -1.3 1.4 -4 1.4 l-4 0 0 9.5 0 9.5 3 0 c2.4 0 3 0.4 3 2.1 0 2 -0.5 2.1 -8.7 1.9 -7.1 -0.2 -24 1.3 -37.8 3.2 -1.1 0.2 -3.7 0.2 -5.7 0z m38.2 -16.2 l0 -10 -3 0 -3 0 0 10 0 10 3 0 3 0 0 -10z m6.8 -0.3 l0.3 -9.7 -2.8 0 -2.8 0 0.2 9.2 c0.1 5.1 0.2 9.6 0.3 10 0 0.5 1 0.6 2.3 0.4 2.1 -0.3 2.2 -0.8 2.5 -9.9z"/>
  <path d="M541 172 c0 -2.9 0.4 -4 1.3 -3.7 0.6 0.2 1.2 1.9 1.2 3.7 0 1.8 -0.6 3.5 -1.2 3.8 -0.9 0.2 -1.3 -0.9 -1.3 -3.8z"/>
  <path d="M548 172.1 c0 -3 0.4 -4.1 1.6 -4.1 1.1 0 1.4 0.9 1.2 3.7 -0.4 5.2 -2.8 5.6 -2.8 0.4z"/>
  <path d="M418 185 c0 -3.2 -0.2 -3.1 10.4 -5 8.4 -1.4 8.6 -1.4 8.6 1.9 0 3.3 -0.4 3.5 -10 5.1 -9 1.4 -9 1.4 -9 -2z"/>
  <path d="M566 186 c0 -1.3 0.7 -2 2 -2 1.3 0 2 0.7 2 2 0 1.3 -0.7 2 -2 2 -1.3 0 -2 -0.7 -2 -2z"/>
  <path d="M453 179.6 c0 -2.3 0.4 -2.5 5.8 -3.1 3.1 -0.3 7.2 -0.7 9 -1 2.3 -0.3 3.5 0.1 3.9 1.1 1 2.7 -2 4.2 -10.4 4.9 l-8.3 0.6 0 -2.5z"/>
  <path d="M481.5 179.8 c-0.9 -2.3 -0.2 -8.3 1 -8.3 1.4 0 1.9 7.5 0.6 8.8 -0.7 0.7 -1.2 0.5 -1.6 -0.5z"/>
  <path d="M491 175.5 c0 -3.3 0.4 -4.5 1.5 -4.5 1.1 0 1.5 1.2 1.5 4.5 0 3.3 -0.4 4.5 -1.5 4.5 -1.1 0 -1.5 -1.2 -1.5 -4.5z"/>
  <path d="M506.7 178.4 c-0.4 -0.4 -0.7 -1.8 -0.7 -3.1 0 -2 0.5 -2.3 3.4 -2.3 2.6 0 3.6 0.5 4.1 2.1 0.4 1.1 0.5 2.2 0.3 2.5 -0.9 0.9 -6.4 1.5 -7.1 0.8z"/>
  <path d="M516.5 176 c-0.9 -2.9 -0.4 -3.3 6.1 -3.8 l5.6 -0.5 -0.4 2.9 c-0.3 2.7 -0.6 2.9 -5.5 3.2 -4.5 0.3 -5.2 0 -5.8 -1.8z"/>
  <path d="M560.4 174.5 c-1 -2.4 0.6 -3.5 5.2 -3.5 4 0 4.4 0.2 4.4 2.5 0 2.3 -0.4 2.5 -4.5 2.5 -3.1 0 -4.7 -0.5 -5.1 -1.5z"/>
  <path d="M495.1 167.8 c0 -1 -0.8 -1.8 -1.6 -1.8 -2 0 -1.9 -2.6 0.1 -3.4 0.9 -0.3 3.1 -0.6 5 -0.6 4.3 0 4.6 2.6 0.5 3.5 -1.7 0.3 -3.2 1.4 -3.4 2.3 -0.4 1.5 -0.5 1.5 -0.6 0z"/>
  <path d="M459.7 167.3 c-1.5 -1.5 -0.5 -3.2 2.3 -3.8 3.6 -0.8 7 0.2 7 2 0 1.9 -7.7 3.5 -9.3 1.8z"/>
  <path d="M504 163.6 c0 -1.6 3 -2.6 8.3 -2.6 3 0 3.7 0.4 3.7 2 0 1.8 -0.7 2 -6 2 -4.4 0 -6 -0.4 -6 -1.4z"/>
 </g>
 <g fill="#91bc29">
  <path d="M217.7 361.7 c-0.6 -2.2 0.3 -7.4 1.8 -9.7 0.8 -1.3 6.5 6.8 6.5 9.3 0 1 -0.7 1.7 -1.7 1.7 -1 0 -2.8 0.3 -3.9 0.6 -1.7 0.4 -2.3 0 -2.7 -1.9z"/>
  <path d="M335.6 301.6 c-0.8 -4.1 -0.1 -7.6 2.6 -12.8 2.4 -4.9 5.2 -5.1 7.2 -0.4 0.8 1.8 1.9 3.6 2.4 4 1.9 1.1 -0.8 6.4 -4.8 9.6 -5 3.9 -6.6 3.8 -7.4 -0.4z"/>
  <path d="M477.5 257 c-0.9 -5.5 0.1 -10.6 3.3 -16.5 2.1 -3.9 3.3 -5.1 5.4 -5.3 2.3 -0.3 3 0.2 3.8 2.5 0.6 1.5 1.7 4 2.5 5.5 2.2 3.8 0.2 8.2 -6.3 13.6 -6.3 5.3 -7.8 5.4 -8.7 0.2z"/>
 </g>
 <g fill="#52729b">
  <path d="M41 382.6 c0 -0.8 1.7 -2.9 3.8 -4.6 2 -1.8 11.1 -10.3 20.2 -19 9.1 -8.6 18.5 -17.4 21 -19.6 2.5 -2.1 7.9 -7 12 -10.8 4.1 -3.8 10.9 -9.6 15 -12.9 4.1 -3.3 7.8 -6.4 8.1 -6.9 0.4 -0.6 3.6 -3.1 7.1 -5.7 3.6 -2.5 11.6 -8.5 17.9 -13.2 6.3 -4.7 15.9 -11.4 21.4 -15 8 -5.1 17.3 -11.6 19.3 -13.4 0.2 -0.2 -0.2 -1.4 -0.9 -2.7 -1.2 -2.3 -1.2 -2.3 1 -0.4 2.1 1.9 2.1 1.9 2.1 -0.6 0 -1.4 0.7 -2.8 1.5 -3.2 1.3 -0.5 1.4 -0.2 0.4 1.5 -0.6 1.1 -0.8 2.3 -0.5 2.6 0.2 0.3 4.9 -2.3 10.3 -5.7 5.4 -3.4 8.7 -5.9 7.5 -5.5 -2 0.6 -2.3 0.4 -2 -1.1 0.3 -1.6 16.9 -12.4 19.1 -12.4 2.3 0 -0.3 3.5 -4 5.4 -2.3 1.1 -4.3 2.5 -4.3 2.9 0 0.5 2 -0.3 4.3 -1.7 3.9 -2.2 15.9 -8.6 16.3 -8.6 0.1 0 0.4 2.3 0.6 5.1 0.4 3.4 1.1 5.5 2.2 6.1 2.8 1.5 1.8 2.8 -2.2 2.8 -4.2 0 -15.3 6.5 -42.3 24.6 -7.7 5.2 -14.6 9.4 -15.2 9.4 -3.9 0 -58.9 42 -60.5 46.1 -0.2 0.5 -7.4 6.9 -16 14.1 -17.3 14.6 -41 35.8 -45.6 40.7 -2.8 2.9 -3.4 3.1 -10.3 3.1 -5.6 0 -7.3 -0.3 -7.3 -1.4z"/>
  <path d="M142 382 c0 -3.7 24.4 -29.8 50.2 -53.8 13.9 -12.9 27.8 -25.3 30.8 -27.5 3 -2.3 11.8 -9.5 19.5 -16.2 7.7 -6.7 17 -14.4 20.6 -17.3 6.9 -5.3 25.6 -17.2 37.4 -23.7 3.9 -2.1 8.1 -4.9 9.4 -6.2 1.3 -1.3 2.9 -2.3 3.5 -2.4 3.6 -0.3 6.2 -1.2 16.2 -5.7 13.6 -6.1 28.6 -11.4 51.4 -18.1 9.6 -2.9 18.2 -5.5 19 -5.8 0.8 -0.3 2.2 -0.7 3 -0.8 0.8 -0.1 6.9 -1.6 13.5 -3.3 24.5 -6.2 39.7 -8.6 79 -12.6 15.1 -1.6 50.7 -3.8 61.5 -4 10.5 -0.1 12.5 0.1 12.8 1.4 0.2 1.4 -2.9 1.8 -22.5 2.8 -101.2 5.3 -192.8 31.3 -252.8 71.8 -18.8 12.7 -25.1 17.8 -44.9 36.2 -9.3 8.6 -18.5 17 -20.5 18.5 -6.6 5.1 -56.5 55.4 -61.6 62 l-5 6.6 -10.2 0 c-9.7 0.1 -10.3 0 -10.3 -1.9z"/>
  <path d="M254.7 238.3 c-1.8 -1.7 -0.5 -3.3 2.8 -3.3 4 0 4.9 2.4 1.3 3.4 -2.9 0.7 -3.3 0.7 -4.1 -0.1z"/>
  <path d="M273 226.2 c0 -1.7 3 -6.2 4.1 -6.2 1.6 0 1 1.8 -1.6 4.7 -1.3 1.5 -2.5 2.2 -2.5 1.5z"/>
  <path d="M381 222.5 c0 -1.1 14.1 -6.5 17 -6.5 3.2 0 1.1 3.8 -2.8 5.1 -3.5 1.1 -14.2 2.2 -14.2 1.4z"/>
  <path d="M245.2 206 c1 -3.1 2.5 -4.6 3.5 -3.6 1 0.9 -1.9 6.6 -3.3 6.6 -1 0 -1.1 -0.6 -0.2 -3z"/>
  <path d="M305.2 194.8 c0.3 -0.7 1.9 -1.8 3.6 -2.5 3.1 -1.3 3.2 -1.2 3.2 1.2 0 2.2 -0.4 2.5 -3.6 2.5 -2.3 0 -3.4 -0.4 -3.2 -1.2z"/>
  <path d="M517.2 194.5 c-1.1 -1.3 -1 -1.5 0.5 -1.6 11.3 -0.5 14.4 -0.6 12.1 -0.2 -1.6 0.2 -2.8 1.1 -2.8 1.9 0 1.9 -8 1.8 -9.8 -0.1z"/>
 </g>
 <g fill="#4caf54">
  <path d="M219.3 364.3 c-2.2 -0.8 -1.4 -4 1.1 -4.7 4.6 -1.1 7.2 1.4 4.4 4.2 -1.2 1.2 -3.3 1.4 -5.5 0.5z"/>
  <path d="M338 307 c-2.9 -2.9 -2.5 -4.4 2 -8 2.2 -1.7 4.3 -4.3 4.6 -5.6 0.8 -3 2.4 -2.7 4.1 0.7 2.2 4.3 1.6 8.5 -1.8 11.8 -3.5 3.6 -6.1 3.9 -8.9 1.1z"/>
  <path d="M482.4 264.8 c-1.2 -0.5 -2.8 -2.1 -3.5 -3.5 -1.3 -2.4 -1.1 -2.7 4.3 -7.6 3.2 -2.9 6.3 -6.7 7.1 -8.6 l1.3 -3.5 2.3 3.7 c4.7 7.6 3.1 15.6 -3.9 19.2 -3.3 1.7 -4.7 1.8 -7.6 0.3z"/>
  <path d="M206 246.7 c0 -2.5 -3.9 -6.5 -7.1 -7.2 -1.7 -0.4 -4.5 -2 -6.3 -3.5 -2.7 -2.4 -3.2 -3.4 -2.8 -6.4 0.5 -4.1 5.9 -9.6 9.5 -9.6 2.8 0 3.8 -0.7 6.6 -4.7 2.4 -3.5 4.5 -4.1 7.3 -1.9 1.3 1 1.6 2.2 1.1 4.9 -0.5 3.3 -0.3 3.8 2.1 4.7 1.5 0.5 4.3 1 6.2 1 4.7 0 6.1 3 4.1 9 -1 3.2 -2.4 4.8 -5.3 6.4 -2.1 1.1 -4.7 3 -5.7 4.1 -1 1.1 -1.5 1.3 -1.1 0.5 0.4 -0.9 -0.3 -0.6 -1.7 0.6 -3.2 2.9 -6.9 4 -6.9 2.1z"/>
  <path d="M562.3 155.3 c-5.2 -0.4 -5.3 -0.4 -5.3 -3.7 0 -3.7 -3.4 -7.6 -6.6 -7.6 -1.1 0 -3.6 -1.4 -5.7 -3.1 -4.8 -3.9 -4.9 -7.4 -0.6 -12.4 2.2 -2.5 4.3 -3.7 7 -4.1 3 -0.5 4.3 -1.4 5.8 -4 3.5 -6 9.1 -4.2 9.1 2.9 0 3 0.4 4 2 4.4 1.9 0.5 2 1.4 2 14.4 0 10.6 -0.3 13.9 -1.2 13.7 -0.7 -0.1 -3.7 -0.3 -6.5 -0.5z"/>
 </g>
 <g fill="#696c71">
  <path d="M247 347.4 c0 -0.4 0.8 -1.3 1.8 -2 2.1 -1.6 16.4 -1.9 19.3 -0.4 4.1 2.2 1.6 3 -9.6 3 -6.3 0 -11.5 -0.3 -11.5 -0.6z"/>
  <path d="M250 301.7 c0 -0.7 14 -12.6 16.3 -13.8 1.3 -0.8 1.7 -0.6 1.7 0.8 0 1.1 -2.4 3.4 -6.2 5.8 -3.3 2.2 -7.4 4.8 -8.9 5.8 -1.6 1.1 -2.9 1.7 -2.9 1.4z"/>
  <path d="M378 295.6 c0 -1.9 3.2 -2.6 12 -2.6 8.8 0 12 0.7 12 2.6 0 1.1 -2.4 1.4 -12 1.4 -9.6 0 -12 -0.3 -12 -1.4z"/>
  <path d="M514 259 c0 -0.5 -1.8 -1 -4 -1 -3.2 0 -4 -0.4 -4 -1.9 0 -1.5 1 -1.9 5.3 -2.5 6.6 -0.7 16.5 -0.8 19.5 0 1.6 0.5 2.2 1.4 2.2 3.5 l0 2.9 -9.5 0 c-5.7 0 -9.5 -0.4 -9.5 -1z"/>
  <path d="M326 230.9 c0 -0.5 1.7 -1.7 3.8 -2.5 2 -0.8 4.6 -1.8 5.7 -2.3 1.1 -0.5 2.2 -0.9 2.5 -0.9 0.3 0 1.8 -0.5 3.3 -1.1 2.6 -1 2.8 -0.9 2.5 1.1 -0.2 1.9 -1 2.4 -4 2.6 -2.3 0.2 -3.8 0.8 -3.8 1.6 0 0.8 -1 1.6 -2.2 2 -3.6 0.9 -7.8 0.7 -7.8 -0.5z"/>
  <path d="M257.8 226.3 c-2 -0.5 -2.5 -4.3 -0.7 -4.3 2.9 0 8.9 2.5 8.9 3.7 0 1.3 -4.4 1.6 -8.2 0.6z"/>
  <path d="M276.6 219.3 c1.8 -3.1 3.7 -7.2 4 -9.1 0.6 -3.1 0.3 -3.9 -2.5 -6.4 -1.7 -1.5 -5.8 -3.5 -9.1 -4.5 -3.9 -1 -6 -2.2 -6 -3.1 0 -1.2 0.9 -1.3 4.7 -0.8 2.6 0.3 5.2 1.1 5.7 1.6 0.6 0.6 1.7 1 2.5 1 0.9 0 2.8 1 4.3 2.3 2.5 2.1 3.2 4.4 2.9 10.2 -0.1 2.8 -7.2 14.5 -8.7 14.5 -0.7 0 0.1 -2.3 2.2 -5.7z"/>
  <path d="M248 222 c0 -2.1 1 -2.4 4.8 -1.4 3.6 1 2.7 3.4 -1.3 3.4 -2.8 0 -3.5 -0.4 -3.5 -2z"/>
  <path d="M348 222.8 c0 -0.9 2.3 -2.2 5.8 -3.3 26 -8.3 26.2 -8.4 26.2 -6.7 0 1.3 -3.3 2.8 -12.8 6.1 -14.9 5.1 -19.2 6 -19.2 3.9z"/>
  <path d="M381.5 222.2 c0.9 -0.8 16.1 -6.2 17.6 -6.2 0.8 0 -0.1 4.9 -1 5.4 -1.6 0.9 -17.5 1.7 -16.6 0.8z"/>
  <path d="M243.4 213.8 c1 -6.4 2.8 -10.8 4.4 -10.8 1 0 1.2 0.6 0.7 1.8 -0.5 0.9 -1.5 4.3 -2.3 7.5 -1.7 6.7 -3.8 7.8 -2.8 1.5z"/>
  <path d="M331 206.6 c0 -4.2 0.2 -7.6 0.4 -7.6 0.2 0 1.2 -0.3 2.1 -0.6 1.4 -0.6 1.6 0.3 1.3 7.2 -0.3 6.6 -0.6 7.9 -2 8.2 -1.6 0.3 -1.8 -0.6 -1.8 -7.2z"/>
  <path d="M341 203.6 c0 -6.2 0.3 -7.6 1.5 -7.6 1.3 0 1.5 1.2 1.3 7.2 -0.2 4.6 -0.7 7.3 -1.5 7.6 -1 0.3 -1.3 -1.6 -1.3 -7.2z"/>
  <path d="M393 208.6 c0 -0.8 1.4 -1.7 3.3 -2.1 1.7 -0.4 3.6 -1 4.2 -1.3 0.5 -0.3 1.6 -0.7 2.5 -0.8 0.8 -0.1 3 -0.5 4.8 -0.9 2.5 -0.6 3.2 -0.4 3.2 0.7 0 1 -2.6 2.2 -8.2 3.7 -9.8 2.5 -9.8 2.5 -9.8 0.7z"/>
  <path d="M412 203.5 c0 -0.8 0.1 -1.5 0.3 -1.5 0.1 0 7.9 -1.8 17.2 -3.9 21.5 -4.9 28.5 -5.8 28.5 -3.7 0 1 -1.3 1.7 -3.7 2.1 -7.1 1.2 -32.9 6.5 -36.3 7.5 -4.8 1.4 -6 1.3 -6 -0.5z"/>
  <path d="M356.2 198.8 c0.3 -3.1 0.5 -3.2 9.3 -5.4 5 -1.3 10.7 -2.6 12.8 -3 l3.8 -0.6 -0.3 3.3 -0.3 3.3 -11 2.8 c-14.4 3.6 -14.7 3.6 -14.3 -0.4z"/>
  <path d="M521.3 198.1 c-3.9 -1.4 -7.4 -2.9 -7.8 -3.3 -0.8 -0.8 2.8 -1.5 11.8 -2.3 l6.8 -0.7 -0.3 4.4 c-0.4 5.3 -1.1 5.4 -10.5 1.9z"/>
  <path d="M253 197.6 c0 -1.5 2.1 -2.6 5.1 -2.6 2.7 0 2.4 2.6 -0.3 3.4 -3.6 0.9 -4.8 0.7 -4.8 -0.8z"/>
  <path d="M316 195 c0 -1.1 -0.4 -2 -1 -2 -0.5 0 -1 -0.5 -1 -1 0 -1.4 7.2 -4.4 18.2 -7.7 7.3 -2.2 9.1 -2.4 9.8 -1.4 1 1.7 4 0.7 4 -1.3 0 -1.8 6.2 -3.4 6.8 -1.7 0.5 1.6 2.2 1.4 2.2 -0.3 0 -1.6 6.5 -3.3 25 -6.5 10.9 -1.9 31.8 -4.9 35 -5 5.5 -0.3 10.8 -0.9 12.8 -1.5 3 -1 8.2 0.2 8.2 1.9 0 1.5 -0.9 1.7 -14.5 3.6 -4.4 0.6 -10.5 1.5 -13.5 2 -3 0.5 -9.5 1 -14.3 1.2 -5.3 0.2 -9.2 0.8 -9.6 1.5 -0.4 0.7 -6 2.4 -12.5 3.8 -9.7 2.1 -12 2.4 -12.7 1.2 -0.7 -1 -0.9 -1 -0.9 0.3 0 1 -2 2.1 -6.2 3.3 -3.5 1 -8.2 2.4 -10.5 3.1 -4.1 1.3 -4.3 1.3 -4.3 -0.6 0 -2.6 -1.8 -2.4 -2.5 0.4 -0.5 1.8 -2.4 2.9 -9.6 5.4 -8.4 3.1 -8.9 3.1 -8.9 1.3z"/>
  <path d="M394.5 196 c-0.3 -0.5 -0.3 -3.9 0.1 -7.5 0.6 -5.6 1 -6.5 2.7 -6.5 1.8 0 1.9 0.4 1.2 6.8 -0.4 3.7 -0.9 7 -1.2 7.5 -0.6 1 -2.1 0.9 -2.8 -0.3z"/>
  <path d="M459 194.7 c0 -0.8 1 -1.7 2.3 -2.1 3.5 -0.9 4.7 -0.7 4.7 0.9 0 0.8 -0.9 1.5 -1.9 1.5 -1.1 0 -2.6 0.3 -3.5 0.6 -1 0.4 -1.6 0.1 -1.6 -0.9z"/>
  <path d="M405.2 187.8 c0.2 -6 0.6 -7.3 2.1 -7.6 1.5 -0.3 1.7 0.5 1.7 6 0 5.9 -1.1 8.8 -3.2 8.8 -0.5 0 -0.8 -3.3 -0.6 -7.2z"/>
  <path d="M467 193.2 c0 -1.3 2.6 -1.8 15.5 -3.2 15.9 -1.8 16.5 -1.8 26 -2.4 13.6 -0.8 6.1 0.9 -15 3.5 -9.9 1.1 -19.9 2.4 -22.2 2.6 -2.7 0.4 -4.3 0.2 -4.3 -0.5z"/>
  <path d="M521.5 187 c1.1 -0.5 3.8 -0.8 6 -0.8 3.8 0 3.9 0.1 1 0.8 -1.6 0.4 -4.3 0.8 -6 0.8 -2.5 0.1 -2.7 -0.1 -1 -0.8z"/>
  <path d="M418.3 185.4 c-0.9 -2.5 1.1 -3.5 9.1 -4.7 8 -1.2 10.2 -0.5 9.1 2.5 -0.4 1.1 -2.9 2 -6.9 2.7 -8.4 1.5 -10.6 1.4 -11.3 -0.5z"/>
  <path d="M534.7 185.9 c1.3 -0.4 9.6 -1 18.5 -1.3 11.2 -0.3 14.1 -0.2 9.3 0.4 -11.2 1.3 -30.3 1.9 -27.8 0.9z"/>
  <path d="M444.3 178.5 c0 -3.8 0.2 -5.3 0.4 -3.2 0.2 2 0.2 5.2 0 7 -0.2 1.7 -0.4 0.1 -0.4 -3.8z"/>
  <path d="M453.3 180.2 c-0.9 -2.3 0.9 -3 9.5 -3.7 7.9 -0.7 8.2 -0.6 8.2 1.4 0 1.3 -0.7 2.1 -1.7 2.2 -1 0 -4.9 0.3 -8.7 0.8 -5.4 0.6 -6.9 0.4 -7.3 -0.7z"/>
  <path d="M481.7 178.7 c-0.7 -1.8 0.3 -6.7 1.4 -6.7 0.5 0 0.9 1.8 0.9 4 0 3.9 -1.3 5.4 -2.3 2.7z"/>
  <path d="M491.7 179.4 c-1 -1.1 -0.9 -7.2 0.3 -7.9 1.4 -0.8 2.4 4.2 1.4 6.6 -0.5 1.1 -1.3 1.7 -1.7 1.3z"/>
  <path d="M506 176.1 c0 -2.3 3.5 -3.1 14.2 -3.1 7 0 7.9 0.2 7.6 1.8 -0.4 2 -5.5 3 -15.5 3.1 -5.5 0.1 -6.3 -0.1 -6.3 -1.8z"/>
  <path d="M542.3 171.5 c0 -2.2 0.2 -3 0.4 -1.7 0.2 1.2 0.2 3 0 4 -0.3 0.9 -0.5 -0.1 -0.4 -2.3z"/>
  <path d="M548 172.1 c0 -1.7 0.5 -3.3 1 -3.6 0.6 -0.4 1 0.8 1 2.9 0 2 -0.4 3.6 -1 3.6 -0.5 0 -1 -1.3 -1 -2.9z"/>
  <path d="M561 173.5 c0 -1.1 1.2 -1.5 4.5 -1.5 3.3 0 4.5 0.4 4.5 1.5 0 1.1 -1.2 1.5 -4.5 1.5 -3.3 0 -4.5 -0.4 -4.5 -1.5z"/>
  <path d="M437 168 c0 -1.7 0.7 -2 4 -2 4.5 0 5.7 2.3 1.8 3.4 -4.2 1.1 -5.8 0.7 -5.8 -1.4z"/>
  <path d="M446 167.1 c0 -1.7 3.3 -3.1 7.6 -3.1 2.3 0 1.6 3.7 -0.8 4.4 -4.4 1.1 -6.8 0.7 -6.8 -1.3z"/>
  <path d="M458 166.1 c0 -1.3 0.6 -2.1 1.8 -2.1 0.9 0 3.4 -0.3 5.5 -0.6 3.3 -0.6 3.7 -0.4 3.7 1.5 0 1.3 -0.6 2.1 -1.7 2.1 -1 0 -3.5 0.3 -5.5 0.6 -3.4 0.6 -3.8 0.4 -3.8 -1.5z"/>
  <path d="M472 165.1 c0 -1.5 1.1 -1.9 7.7 -2.5 13.2 -1.1 20.3 -0.8 20.3 0.9 0 1.8 -3.3 2.3 -17.2 3 -10 0.4 -10.8 0.3 -10.8 -1.4z"/>
  <path d="M510 163.6 c0 -1.9 3.2 -2.6 11.8 -2.6 5.5 0 7.2 0.3 7.2 1.4 0 1.9 -3.2 2.6 -11.7 2.6 -5.6 0 -7.3 -0.3 -7.3 -1.4z"/>
  <path d="M535.7 164.2 c-0.9 -0.2 -1.7 -1 -1.7 -1.8 0 -1.6 4.8 -1.8 22.8 -0.7 8 0.4 11.2 1 11.2 1.9 0 0.9 -3.6 1.2 -15.3 1.1 -8.4 -0.1 -16 -0.3 -17 -0.5z"/>
 </g>
 <g fill="#65696a">
  <path d="M242.7 350.4 c-0.4 -0.4 -0.7 -1.5 -0.7 -2.4 0 -1.3 1.3 -1.9 5.7 -2.4 3.7 -0.4 5.9 -0.3 6.1 0.4 0.5 1.4 8.9 1.3 9.4 -0.1 0.3 -0.9 2.1 -0.9 6.3 -0.3 5 0.8 6 1.2 6 2.9 0 1.9 -0.8 2 -16.1 2.3 -8.8 0.1 -16.3 -0.1 -16.7 -0.4z"/>
  <path d="M373.4 298.5 c-1.2 -3.1 0.4 -4.5 5.1 -4.5 2.5 0 4.5 0.5 4.5 1 0 0.6 3 1 7 1 4.2 0 7 -0.4 7 -1.1 0 -0.6 1.9 -0.9 4.8 -0.7 4.3 0.3 4.7 0.5 4.7 2.8 l0 2.5 -16.3 0.3 c-13.8 0.2 -16.3 0 -16.8 -1.3z"/>
  <path d="M254.8 297.9 c2.4 -3.2 13.2 -11 13.2 -9.7 0 0.8 -1.7 2.4 -3.7 3.6 -2.1 1.2 -5.4 3.5 -7.3 5 -1.9 1.5 -2.9 2 -2.2 1.1z"/>
  <path d="M488 264.3 c0 -0.5 0.7 -1.8 1.5 -2.9 1.3 -1.8 1.4 -1.8 0.8 0.4 -0.5 2.2 -2.3 4.1 -2.3 2.5z"/>
  <path d="M184.2 257.2 c-2.4 -2.6 -2.9 -3.8 -2 -4.4 0.8 -0.5 1.4 -0.1 1.6 1 0.2 0.9 1.3 2.7 2.5 3.9 1.1 1.3 1.9 2.5 1.6 2.7 -0.2 0.2 -1.9 -1.3 -3.7 -3.2z"/>
  <path d="M189.1 257.5 c-0.1 -2 0.6 -3.4 1.9 -4.3 2 -1.2 2 -1.2 0.7 1.5 -0.8 1.5 -1.7 3.5 -2 4.3 -0.3 0.8 -0.6 0.1 -0.6 -1.5z"/>
  <path d="M505.4 258.6 c-1.2 -3 0.3 -4.3 5 -4.3 2.5 -0.1 4.6 0.3 4.6 0.8 0 0.5 2.5 0.9 5.5 0.9 4.2 0 5.5 0.3 5.5 1.5 0 0.8 -0.1 1.5 -0.2 1.6 -0.2 0 -4.7 0.3 -10 0.6 -8.4 0.4 -9.9 0.3 -10.4 -1.1z"/>
  <path d="M528.8 259.3 c-2.2 -0.6 -2.3 -2 -0.3 -3.9 1 -1 2.9 -1.4 5.7 -1.2 3.8 0.3 4.3 0.6 4.3 2.8 0 2.2 -0.4 2.5 -4 2.7 -2.2 0 -4.8 -0.1 -5.7 -0.4z"/>
  <path d="M269.5 256.3 c-2.7 -0.9 -5.1 -1.9 -5.3 -2.4 -0.2 -0.5 -1.5 -0.9 -2.9 -0.9 -1.3 0 -7.4 -1.4 -13.4 -3.2 l-10.9 -3.2 0.1 -3.6 c0.1 -1.9 0.3 -2.8 0.6 -1.9 0.2 1.1 4.1 2.7 11.6 4.9 6.2 1.7 13.8 4 17 5.1 11 3.5 12.1 3.5 17.9 -0.4 6.4 -4.1 18.9 -11 24.1 -13.2 3.6 -1.5 3.7 -1.5 3.7 0.8 0 1.8 -1.3 2.9 -6.5 5.5 -3.6 1.8 -7.9 3.2 -9.5 3.2 -2.3 0 -3 0.4 -3 2 0 1.5 -0.7 2 -2.5 2 -1.6 0 -2.5 0.6 -2.5 1.5 0 0.8 -0.8 1.5 -1.9 1.5 -1 0 -2.1 0.9 -2.4 2 -0.4 1.6 -1.3 2 -4.9 1.9 -2.3 -0.1 -6.5 -0.8 -9.3 -1.6z"/>
  <path d="M251.5 235.9 c-5.9 -5.2 -8 -10.2 -7.9 -18.9 0 -11.9 5.1 -20.2 13.5 -21.9 4.8 -1 14.1 0.5 19.7 3.1 8.4 4.1 9 9.9 2 21.4 -4.7 7.9 -9.3 13 -14.1 15.8 -7 4 -9.1 4.1 -13.2 0.5z m9.5 -2.9 c0 -0.5 0.7 -1 1.5 -1 0.8 0 1.5 -0.4 1.5 -0.9 0 -0.5 1.2 -1.1 2.8 -1.4 l2.7 -0.4 -3.2 -0.8 c-2.3 -0.5 -3.3 -1.3 -3.3 -2.6 0 -2.1 1.1 -2.3 5.7 -1 2.6 0.8 3.5 0.6 5.1 -1.2 3 -3.2 7.2 -12.1 7.2 -15.1 0 -5.9 -11.3 -11.2 -21.8 -10.4 -5 0.4 -6 0.9 -8.9 4.3 -2.1 2.5 -3.6 5.6 -4.4 9.3 -1 5 -0.9 5.7 0.7 6.9 1 0.7 2.4 1.3 3.1 1.3 0.7 0 1.3 0.7 1.3 1.5 0 0.8 -0.7 1.5 -1.5 1.5 -2.3 0 -1.9 4.7 0.5 5.3 1.4 0.3 2 1.4 2 3.1 0 2.4 0.3 2.6 4.5 2.6 2.5 0 4.5 -0.4 4.5 -1z"/>
  <path d="M313 236.3 c0 -1.1 2.5 -2.5 9.8 -5.3 l5.2 -2 0 2.5 c0 2 -0.5 2.5 -2.4 2.5 -1.3 0 -2.6 0.5 -2.8 1.1 -0.5 1.4 -9.8 2.5 -9.8 1.2z"/>
  <path d="M282.4 225.8 c0.7 -5.6 3.1 -11.8 4.5 -11.8 2.6 0 0.7 9.7 -2.6 13.6 l-2.4 2.9 0.5 -4.7z"/>
  <path d="M332 229 c0 -0.6 1.5 -1.7 3.3 -2.4 7 -3 14 -5.6 15.3 -5.6 2 0 1.7 3 -0.3 3.6 -1 0.3 -2.6 1 -3.5 1.5 -1 0.5 -2.5 0.9 -3.4 0.9 -0.8 0 -2.2 0.7 -3 1.5 -1.7 1.7 -8.4 2.1 -8.4 0.5z"/>
  <path d="M289 219 c0 -1.7 0.5 -3 1.1 -3 0.6 0 1.7 -0.7 2.5 -1.5 0.9 -0.8 2.6 -1.5 4 -1.5 1.3 0 2.4 -0.4 2.4 -0.8 0 -1 10.8 -4.2 14 -4.2 1.1 0 2 0.6 2 1.4 0 1 -2.9 2.4 -8.2 4 -4.6 1.4 -10.4 3.9 -13 5.5 l-4.8 3.1 0 -3z"/>
  <path d="M390.4 219.5 c8.1 -2.9 8.6 -3 8.6 -1.1 0 2.1 -0.7 2.3 -8.5 3 l-7 0.6 6.9 -2.5z"/>
  <path d="M370 215.7 c0 -0.7 4.3 -2.6 10.4 -4.5 14 -4.3 16.6 -4.8 16.6 -3.1 0 0.9 -4.5 2.7 -12.8 5.2 -14.2 4.2 -14.2 4.2 -14.2 2.4z"/>
  <path d="M287 212.2 c0 -0.5 1.5 -2.9 3.3 -5.3 l3.2 -4.4 0.3 3.5 c0.2 1.9 -0.1 3.6 -0.7 3.8 -0.6 0.2 -1.1 1 -1.1 1.8 0 0.8 -1 1.4 -2.5 1.4 -1.4 0 -2.5 -0.4 -2.5 -0.8z"/>
  <path d="M408 204.7 c0 -0.8 1 -1.7 2.3 -2.1 3.5 -0.9 4.7 -0.7 4.7 0.9 0 0.8 -0.6 1.5 -1.2 1.5 -0.7 0 -2.3 0.3 -3.5 0.6 -1.7 0.5 -2.3 0.2 -2.3 -0.9z"/>
  <path d="M298 198.9 c6 -5.1 17 -9.6 17 -6.9 0 0.6 1.1 1 2.5 1 1.4 0 2.5 0.5 2.5 1 0 0.6 -1.1 1.6 -2.5 2.2 -1.4 0.6 -2.5 1.7 -2.5 2.5 0 0.7 -0.4 1.3 -1 1.3 -0.5 0 -1 -1.1 -1 -2.5 0 -1.6 -0.6 -2.5 -1.5 -2.5 -0.8 0 -1.5 0.4 -1.5 1 0 0.5 -1.1 1.2 -2.5 1.6 -1.4 0.3 -2.5 1 -2.5 1.5 0 0.5 -0.7 0.9 -1.5 0.9 -0.8 0 -1.5 0.5 -1.5 1 0 0.6 -1.7 1 -3.7 1 l-3.8 -0.1 3.5 -3z"/>
  <path d="M425 200.6 c0 -1.3 2.8 -2.6 5.8 -2.6 2.1 0 1.3 2.7 -1 3.4 -3.6 0.9 -4.8 0.7 -4.8 -0.8z"/>
  <path d="M434 198.6 c0 -1 1.9 -1.9 5.8 -2.7 8.3 -1.8 9.3 -1.8 9 -0.1 -0.3 1.7 -2.7 2.5 -10.1 3.6 -3.8 0.6 -4.7 0.4 -4.7 -0.8z"/>
  <path d="M521 197.2 l-7.5 -2.7 4.9 -0.7 c3 -0.4 5.7 -0.3 7 0.4 1.5 0.8 2.1 0.8 2.4 -0.1 0.2 -0.6 1.3 -1.1 2.3 -1.1 1.7 0 2 0.6 1.7 3.2 -0.4 4.2 -1.5 4.3 -10.8 1z"/>
  <path d="M452 195.7 c0 -0.8 1 -1.7 2.3 -2.1 3.5 -0.9 4.7 -0.7 4.7 0.9 0 0.8 -0.6 1.5 -1.2 1.5 -0.7 0 -2.3 0.3 -3.5 0.6 -1.7 0.5 -2.3 0.2 -2.3 -0.9z"/>
  <path d="M460 194.4 c0 -0.6 1 -1.4 2.3 -1.8 3.5 -0.9 4.7 -0.7 4.7 0.8 0 0.8 -1.4 1.5 -3.5 1.8 -2.3 0.3 -3.5 0 -3.5 -0.8z"/>
  <path d="M321 192.4 c0 -2.1 0.5 -2.4 3.5 -2.4 2.2 0 3.5 0.5 3.5 1.3 0 0.8 -1.6 1.8 -3.5 2.4 -3.3 1.1 -3.5 1 -3.5 -1.3z"/>
  <path d="M469 193.1 c0 -1.1 5.9 -2.5 6.8 -1.6 0.3 0.3 0 1 -0.8 1.5 -1.9 1.2 -6 1.3 -6 0.1z"/>
  <path d="M330 189 c0 -1.6 0.7 -2 3.5 -2 4 0 4.9 2.4 1.3 3.4 -3.8 1 -4.8 0.7 -4.8 -1.4z"/>
  <path d="M344 185 c0 -1.6 0.7 -2 3.5 -2 4 0 4.9 2.4 1.3 3.4 -3.8 1 -4.8 0.7 -4.8 -1.4z"/>
  <path d="M355 182 c0 -1.6 0.7 -2 3.5 -2 4 0 4.9 2.4 1.3 3.4 -3.8 1 -4.8 0.7 -4.8 -1.4z"/>
  <path d="M372 178 c0 -1.6 0.7 -2 3.5 -2 4 0 4.9 2.4 1.3 3.4 -3.8 1 -4.8 0.7 -4.8 -1.4z"/>
  <path d="M382 176.1 c0 -1.6 0.6 -2.1 2.4 -2.1 1.3 0 2.6 -0.4 2.8 -1 0.2 -0.5 1.8 -1.2 3.6 -1.6 2.8 -0.6 3.2 -0.4 3.2 1.5 0 1.6 -0.6 2.1 -2.4 2.1 -1.3 0 -2.6 0.4 -2.8 1 -0.1 0.5 -1.8 1.2 -3.5 1.6 -2.9 0.6 -3.3 0.4 -3.3 -1.5z"/>
  <path d="M401 171.6 c0 -1.3 2.8 -2.6 5.8 -2.6 0.6 0 1.2 0.9 1.2 2 0 1.6 -0.7 2 -3.5 2 -2.3 0 -3.5 -0.5 -3.5 -1.4z"/>
  <path d="M412 171.1 c0 -1.3 0.6 -2.1 1.8 -2.1 0.9 0 4.1 -0.3 7 -0.6 4.3 -0.6 5.2 -0.4 5.2 0.9 0 1.5 -1.2 2 -9.7 3.2 -3.9 0.6 -4.3 0.5 -4.3 -1.4z"/>
  <path d="M427 169 c0 -1.6 0.7 -2 3.5 -2 4 0 4.9 2.4 1.3 3.4 -3.8 1 -4.8 0.7 -4.8 -1.4z"/>
  <path d="M435 167.6 c0 -0.7 1 -1.6 2.3 -2 4.1 -1.1 5.7 -0.7 5.7 1.4 0 1.7 -0.7 2 -4 2 -2.7 0 -4 -0.4 -4 -1.4z"/>
  <path d="M445 167 c0 -1.6 0.7 -2 3.5 -2 4 0 4.9 2.4 1.3 3.4 -3.8 1 -4.8 0.7 -4.8 -1.4z"/>
  <path d="M457 166.1 c0 -1.5 1.2 -1.9 6.8 -2.4 10.8 -1.1 14.2 -0.9 14.2 0.8 0 1.6 -2.6 2.1 -13.7 2.9 -6.5 0.4 -7.3 0.3 -7.3 -1.3z"/>
  <path d="M486 163.9 c0 -1.7 0.7 -1.9 6.5 -1.9 5.1 0 6.5 0.3 6.5 1.5 0 0.8 -0.6 1.5 -1.2 1.5 -0.7 0.1 -3.7 0.3 -6.5 0.5 -4.7 0.3 -5.3 0.2 -5.3 -1.6z"/>
  <path d="M511 163.5 c0 -0.9 0.9 -1.5 2.3 -1.5 1.2 -0.1 4.6 -0.3 7.5 -0.5 3.8 -0.3 5.2 0 5.2 0.9 0 0.8 -1.8 1.6 -4.6 2 -7.6 1 -10.4 0.8 -10.4 -0.9z"/>
  <path d="M536.8 164.2 c-3.4 -0.7 -2 -3.2 1.7 -3.2 2.3 0 3.5 0.5 3.5 1.4 0 1.5 -2.5 2.4 -5.2 1.8z"/>
  <path d="M563.8 164.3 c-3.3 -0.8 -1.8 -2.3 2.2 -2.3 2.9 0 4 0.4 4 1.5 0 1.5 -2.5 1.8 -6.2 0.8z"/>
  <path d="M562 153.5 c0 -0.8 1 -2.4 2.3 -3.7 1.2 -1.3 3 -3.4 4 -4.8 1 -1.4 0.3 0.3 -1.5 3.7 -3.2 6.2 -4.8 7.7 -4.8 4.8z"/>
 </g>
 <g fill="#585c5f">
  <path d="M243 348.1 c0 -1.7 1 -2 8.4 -2.6 11.4 -1 23 0.4 23.4 2.8 0.3 1.6 -1 1.7 -15.7 1.7 -15.2 0 -16.1 -0.1 -16.1 -1.9z"/>
  <path d="M374 297.1 c0 -2.1 4.9 -3.1 16 -3.1 11.1 0 16 1 16 3.1 0 1.8 -1.1 1.9 -16 1.9 -14.9 0 -16 -0.1 -16 -1.9z"/>
  <path d="M262.5 291.5 c2.2 -1.9 4.4 -3.5 4.9 -3.5 1.5 0 -1.5 2.8 -5.2 5 l-3.7 2 4 -3.5z"/>
  <path d="M506 257.1 c0 -2.1 4.9 -3.1 16 -3.1 11.1 0 16 1 16 3.1 0 1.8 -1.1 1.9 -16 1.9 -14.9 0 -16 -0.1 -16 -1.9z"/>
  <path d="M270 255 c0 -2.1 1 -2.4 4.8 -1.4 3.6 1 2.7 3.4 -1.3 3.4 -2.8 0 -3.5 -0.4 -3.5 -2z"/>
  <path d="M282.7 252.1 c3 -2.5 20.1 -12.1 21.7 -12.1 0.3 0 0.6 1.1 0.6 2.5 0 2.1 -0.5 2.5 -3 2.5 -1.8 0 -3 0.5 -3 1.3 0 1.6 -4.1 3.7 -7 3.7 -1.1 0 -2 0.7 -2 1.5 0 0.8 -0.7 1.5 -1.5 1.5 -0.8 0 -1.5 0.5 -1.5 1 0 0.6 -1.7 1 -3.7 1 l-3.8 -0.1 3.2 -2.8z"/>
  <path d="M260 252 c0 -2.1 1 -2.4 4.8 -1.4 3.6 1 2.7 3.4 -1.3 3.4 -2.8 0 -3.5 -0.4 -3.5 -2z"/>
  <path d="M243 247 c0 -2.1 1 -2.4 4.8 -1.4 3.6 1 2.7 3.4 -1.3 3.4 -2.8 0 -3.5 -0.4 -3.5 -2z"/>
  <path d="M308 238.9 c0 -3.7 63.8 -26 103.5 -36.3 27.3 -7 49.7 -10.5 86 -13.6 12.2 -1.1 31.4 -2.1 24 -1.3 -41.2 4.3 -72.9 9.2 -101.4 15.8 -27.1 6.2 -68.8 19.8 -87.6 28.5 -3.3 1.5 -8.5 3.6 -11.5 4.6 -3 1.1 -5.6 2.2 -5.8 2.7 -0.6 1.1 -7.2 0.8 -7.2 -0.4z"/>
  <path d="M249.9 233.9 c-4.1 -4.5 -6.6 -9.9 -4.6 -9.9 0.7 0 0.6 -0.4 -0.3 -1 -2.4 -1.5 -1.5 -12.4 1.6 -18.7 3.1 -6.5 7.3 -9.3 14 -9.3 8.2 0 18.4 3.4 21.1 6.9 5.6 7.2 -8.4 30.7 -20.9 35.4 -1.4 0.5 -1.8 0.1 -1.8 -1.8 0 -2.1 0.5 -2.5 3 -2.5 2.4 0 3 -0.4 3 -2.3 0 -2 -1 -2.5 -8 -4.3 -6.5 -1.6 -8 -1.8 -7.5 -0.6 0.3 0.7 0.5 2 0.5 2.8 0 0.8 0.4 1.4 1 1.4 1.9 0 5 3.5 5 5.7 0 3.4 -1.8 2.8 -6.1 -1.8z m27.2 -14.8 c4.8 -7.9 5.1 -12.1 1.2 -15.7 -3.3 -3 -11.1 -5.4 -17.9 -5.4 -4.5 0 -5.9 0.5 -8.8 3 -3.6 3.2 -6.6 10.1 -6.6 15.2 0 2.2 0.6 2.9 2.8 3.4 1.5 0.4 7.2 2 12.7 3.5 5.5 1.5 10.6 2.7 11.4 2.6 0.7 -0.1 3.1 -3.1 5.2 -6.6z"/>
  <path d="M282.6 225.3 c2.5 -13.5 10.1 -24 22.1 -30.5 7.7 -4.2 36.5 -13.4 53.8 -17.2 30.2 -6.6 65.3 -11.3 107.8 -14.1 8.4 -0.6 9.7 -0.5 9.7 0.9 0 1.7 -2.4 2.2 -15 3.1 -30.2 2.1 -71.5 8.4 -99 15.1 -15.4 3.8 -21.8 5.7 -37 10.9 l-9.5 3.2 -0.3 4.2 c-0.3 3.3 -0.7 4.1 -2.3 4.1 -1.6 0 -1.9 -0.7 -1.9 -4.5 0 -3.8 -0.3 -4.5 -2 -4.5 -1.1 0 -2 0.7 -2 1.5 0 1 -1 1.5 -3 1.5 -2.3 0 -3 0.4 -3 2 0 1.6 -0.7 2 -3 2 -2.7 0 -3 0.3 -3 3 0 2.3 -0.4 3 -2 3 -1.6 0 -2 0.7 -2 3 0 2.5 0.4 3 2.5 3 1.5 0 2.5 -0.6 2.5 -1.4 0 -1.7 2.2 -2.6 6.1 -2.6 1.6 0 2.9 -0.4 2.9 -0.8 0 -0.9 6.6 -3.2 8.9 -3.2 0.6 0 1.1 0.8 1.1 1.9 0 1.4 -1.4 2.2 -6.2 3.6 -9.9 2.7 -16.2 6.1 -21.2 11.5 -2.6 2.8 -4.9 5 -5.2 5 -0.3 0 -0.2 -1.7 0.2 -3.7z"/>
  <path d="M391.5 219 c6.2 -2.3 7.5 -2.4 7.5 -0.6 0 1.7 -3.1 2.6 -8.5 2.5 l-4 -0.1 5 -1.8z"/>
  <path d="M522.5 197.2 c-6.6 -2.5 -6.8 -2.7 -4 -3.3 1.7 -0.4 5.1 -0.7 7.8 -0.8 l4.7 -0.1 0 3.5 c0 1.9 -0.3 3.5 -0.7 3.4 -0.5 0 -3.9 -1.2 -7.8 -2.7z"/>
  <path d="M530.8 186.3 c1.8 -0.2 4.5 -0.2 6 0 1.5 0.2 0 0.4 -3.3 0.4 -3.3 0 -4.5 -0.2 -2.7 -0.4z"/>
  <path d="M548.3 185.3 c2 -0.2 5.4 -0.2 7.5 0 2 0.2 0.3 0.4 -3.8 0.4 -4.1 0 -5.8 -0.2 -3.7 -0.4z"/>
  <path d="M477 164.7 c0 -1 1.9 -1.6 6.1 -2.1 9.6 -1 33.9 -0.7 33.9 0.4 0 1.3 -4.5 1.8 -23.2 2.5 -13.9 0.4 -16.8 0.3 -16.8 -0.8z"/>
  <path d="M565.8 164.2 c-2.9 -0.6 -2 -2.2 1.2 -2.2 1.7 0 3 0.4 3 0.9 0 1.2 -2.1 1.8 -4.2 1.3z"/>
  <path d="M520 163.1 c0 -1.6 4.3 -2.1 18 -2.1 13.7 0 18 0.5 18 2.1 0 0.5 -8.1 0.9 -18 0.9 -9.9 0 -18 -0.4 -18 -0.9z"/>
 </g>
 <g fill="#1c435e">
  <path d="M54 379.4 c6.4 -6.6 29 -26.8 47.2 -42.2 8.6 -7.2 15.8 -13.6 16 -14.1 1.6 -4.1 56.6 -46.1 60.4 -46.1 0.7 0 8.3 -4.7 17 -10.5 16.6 -11.1 38.7 -24.9 41.7 -26 1.1 -0.5 1.7 -0.2 1.7 0.8 0 1.7 1.2 2.1 25.2 9.2 l15.6 4.6 4.9 -3.4 c7 -5.1 28 -15.6 41.8 -21 31 -12.1 80.8 -27.1 110 -33.2 12.7 -2.6 49.7 -7 51.8 -6.2 0.6 0.3 0.1 0.6 -1.2 0.6 -3.6 0.1 -34.2 4.9 -45.2 7.1 -58.2 11.5 -108.6 30 -150.9 55.4 -16.3 9.8 -25.5 16.6 -44.2 32.9 -7.9 6.8 -16.8 14.2 -19.8 16.4 -10.7 7.8 -57.7 52.7 -69.6 66.5 l-11.9 13.7 -47.5 0 -47.4 0.1 4.4 -4.6z m210.5 -124.2 c-0.8 -0.2 -4.8 -1.4 -8.9 -2.6 -5.2 -1.6 -7.3 -1.9 -6.9 -1.1 0.7 1.9 15.6 6.4 16.5 5.1 0.4 -0.6 0.1 -1.2 -0.7 -1.4z"/>
  <path d="M251.1 234.8 c-5.9 -5.8 -9.2 -14.8 -5.3 -14.8 1.1 0 2.6 2 4.2 5.5 1.4 3 2.8 5.5 3.2 5.5 0.5 0 0.8 0.7 0.8 1.5 0 2.1 2.9 1.9 6.8 -0.5 1.8 -1.1 4.6 -2 6.2 -2 2.3 0 3 -0.5 3 -1.9 0 -1.2 0.9 -2 2.6 -2.4 2.4 -0.4 2.3 -0.1 -1.8 4 -4.8 4.9 -10.5 8.3 -14.1 8.3 -1.3 0 -3.8 -1.4 -5.6 -3.2z"/>
  <path d="M283.4 222.8 c3.5 -14.7 13.6 -25.8 28.1 -30.8 l5.5 -1.9 -0.1 2.2 c0 1.7 -1.7 3 -7.9 6 -7.4 3.5 -13 8 -15.7 12.6 -1.9 3.1 -1.6 3.3 2.5 1.3 4.6 -2.3 17.9 -5.8 18.8 -4.9 1.6 1.6 -0.9 3.5 -6.7 5.2 -9.4 2.7 -15.6 6.1 -20.4 11.1 -2.4 2.4 -4.5 4.4 -4.8 4.4 -0.3 0 0 -2.4 0.7 -5.2z"/>
  <path d="M282.2 208.9 c-0.4 -6.1 -9.8 -11.1 -21 -11.2 -6.6 0 -7.5 0.2 -10.2 2.8 -1.5 1.5 -3.4 4 -4.1 5.6 -0.6 1.7 -1.4 2.7 -1.6 2.5 -0.3 -0.3 0.4 -2.5 1.6 -4.9 3.1 -6.4 8.4 -9.1 16.5 -8.4 7.8 0.7 17.3 4.2 18.7 6.8 0.5 1.1 0.8 3.7 0.6 5.7 -0.2 2.3 -0.4 2.8 -0.5 1.1z"/>
  <path d="M491.3 190.3 c0.9 -0.2 2.5 -0.2 3.5 0 0.9 0.3 0.1 0.5 -1.8 0.5 -1.9 0 -2.7 -0.2 -1.7 -0.5z"/>
  <path d="M553.3 185.3 c0.9 -0.2 2.5 -0.2 3.5 0 0.9 0.3 0.1 0.5 -1.8 0.5 -1.9 0 -2.7 -0.2 -1.7 -0.5z"/>
 </g>
 <g fill="#202022">
  <path d="M259.5 259.9 c-3.3 -1 -7.7 -2.4 -9.7 -2.9 -2.1 -0.6 -3.9 -1.8 -4.3 -2.9 -0.3 -1.1 -2.1 -2.9 -4 -4 -2.6 -1.5 -3.2 -2.4 -2.8 -4.1 0.4 -1.3 1.1 -1.9 2.2 -1.6 0.9 0.3 5.1 1.5 9.4 2.7 8.3 2.4 10.5 4.9 4.2 4.9 -1.9 0 -3.5 -0.4 -3.5 -1 0 -0.5 -0.5 -1 -1.1 -1 -0.6 0 -0.9 0.6 -0.7 1.3 0.3 0.6 2.7 1.8 5.4 2.5 9.7 2.7 9.4 2.7 9.4 -0.1 0 -2.4 0.1 -2.5 3.8 -1.5 2 0.6 4 1.5 4.3 2 1.1 1.8 7.9 1.1 10.2 -0.9 5.6 -5 28.4 -16.6 47.2 -24.1 37.5 -14.8 99.6 -32 127.4 -35.2 9.7 -1.1 13.9 -0.8 5.4 0.5 -2.6 0.3 -11.8 2 -20.3 3.6 -57.5 11.2 -109.5 30 -150.3 54.4 -12.7 7.6 -12.9 7.6 -18.1 7 -4.4 -0.6 -5.4 -0.4 -5.9 0.9 -0.8 2 -0.8 2 -8.2 -0.5z"/>
  <path d="M250.7 233.8 l-4.1 -4.3 2.8 -0.3 c1.8 -0.2 3.6 0.4 5 1.7 1.4 1.4 3.6 2.1 5.9 2.1 5.9 0 4.3 2.7 -2.7 4.4 -2.4 0.6 -3.4 0.1 -6.9 -3.6z"/>
  <path d="M266.5 229.3 c-1.1 -0.2 -5.4 -1.3 -9.6 -2.3 -4.1 -1.1 -8.5 -1.7 -9.6 -1.4 -1.7 0.5 -2.2 0 -2.8 -2.6 -0.4 -1.7 -0.5 -3.3 -0.3 -3.5 0.1 -0.2 5.9 1.2 12.7 3.1 6.9 1.9 13.3 3.4 14.3 3.4 2.1 0 2.3 1.1 0.6 2.8 -1.2 1.2 -1.8 1.3 -5.3 0.5z"/>
  <path d="M284 222.8 c0 -3 1.3 -5.8 2.7 -5.8 2.2 0 1.3 6.4 -0.9 6.8 -1 0.2 -1.8 -0.2 -1.8 -1z"/>
  <path d="M289 218 c0 -2.8 0.3 -3 3.5 -3 4.4 0 4.4 0.9 0 3.8 l-3.5 2.2 0 -3z"/>
  <path d="M302 211.2 c0 -1.3 1.3 -2.1 4.5 -3 l4.5 -1.2 0 -7.3 0 -7.3 9.8 -3.6 c32.7 -12.1 79.1 -20.2 142.7 -24.9 20 -1.5 106.5 -2.4 106.5 -1.2 0 0.7 -15.2 1.2 -42.7 1.6 -43.9 0.6 -56.2 1.2 -88.3 4.7 -45.9 5 -96.3 16.1 -121.3 26.5 l-3.8 1.5 0.7 6.4 0.7 6.4 -5.4 1.6 c-6.7 2 -7.9 2 -7.9 -0.2z"/>
  <path d="M280.1 204.7 c-3.8 -4.6 -10.1 -6.9 -18.9 -7 -7.4 0 -7.6 0 -10.9 3.6 -1.8 2 -3.3 3.3 -3.3 2.8 0 -1.9 6.2 -7.1 9.6 -8 7.5 -2.1 23.6 2.7 25.4 7.5 1.6 4 0.8 4.5 -1.9 1.1z"/>
  <path d="M295.5 202 c0.3 -0.5 1.9 -1.9 3.5 -3 l3 -2.1 0 3 c0 2.9 -0.3 3.1 -3.6 3.1 -2 0 -3.3 -0.4 -2.9 -1z"/>
 </g>
 <g fill="#1c1c1a">
  <path d="M260.5 259.3 c-2.7 -0.8 -7 -1.9 -9.5 -2.6 -3.3 -0.9 -4.6 -1.7 -4.8 -3.3 -0.2 -1.2 -1.7 -2.7 -3.7 -3.7 -1.9 -0.9 -3.5 -2.4 -3.5 -3.3 0 -2.3 2.9 -1.8 20.5 3.6 13.8 4.1 19.6 5.4 20.9 4.4 8.5 -6.3 28.7 -16.6 46.6 -23.7 13.3 -5.3 17.6 -6.5 16.6 -4.8 -0.4 0.6 -1.4 1.1 -2.1 1.1 -2.6 0 -23.4 9.7 -38.4 17.9 -6.2 3.4 -11.8 6.3 -12.4 6.4 -0.6 0.1 -2.3 1.2 -3.7 2.5 -1.4 1.2 -3.5 2.5 -4.7 2.8 -1.3 0.4 -2.3 1.1 -2.3 1.6 0 0.7 -2.2 0.8 -6.1 0.4 -4.7 -0.6 -6.4 -0.4 -7.2 0.7 -1 1.2 -1.9 1.3 -6.2 0z"/>
  <path d="M250.6 233.1 c-3.4 -3.5 -7 -10.7 -6 -12.2 0.2 -0.3 5.4 0.6 11.6 2.2 6.2 1.5 12.6 3 14.2 3.4 l2.9 0.6 -2.9 3 c-3.3 3.5 -10 6.9 -13.5 6.9 -1.6 0 -3.9 -1.4 -6.3 -3.9z"/>
  <path d="M283 226.5 c0 -0.6 0.7 -3.2 1.5 -5.8 3.5 -11.5 10.6 -20.2 20.8 -25.4 12.2 -6.2 51.2 -17.1 73.7 -20.7 1.9 -0.3 6 -1 9 -1.6 19.1 -3.7 79.8 -9.7 78 -7.7 -0.3 0.3 -4.4 0.8 -9 1.1 -8.4 0.5 -46.4 5.1 -50.8 6.1 -1.3 0.3 -4.3 0.8 -6.5 1.1 -15.3 2 -63.2 13.4 -71.2 17 -1.6 0.7 -5.6 2.3 -8.7 3.4 l-5.8 2.1 0 6.9 0 6.9 -5.7 1.7 c-8.7 2.5 -15.3 6.1 -20.5 11.2 -2.7 2.5 -4.8 4.2 -4.8 3.7z"/>
  <path d="M279.6 203 c-1.6 -1.7 -4.7 -3.5 -6.9 -4.1 -2.1 -0.6 -3.7 -1.3 -3.4 -1.6 0.8 -0.7 10.4 2.6 11.5 4 0.9 1.2 2.4 4.7 1.9 4.7 -0.1 0 -1.5 -1.4 -3.1 -3z"/>
  <path d="M259 196 c0 -0.7 1.4 -0.8 3.8 -0.4 5.1 0.9 5.3 1.4 0.4 1.4 -2.3 0 -4.2 -0.5 -4.2 -1z"/>
  <path d="M467.4 164.9 c-0.2 -0.3 2.7 -0.7 6.3 -0.8 3.7 -0.1 7 -0.4 7.5 -0.7 0.4 -0.3 0.8 -0.1 0.8 0.5 0 1 -13.9 2 -14.6 1z"/>
  <path d="M489.8 163.3 c2.3 -0.2 6.1 -0.2 8.5 0 2.3 0.2 0.4 0.4 -4.3 0.4 -4.7 0 -6.6 -0.2 -4.2 -0.4z"/>
 </g>
</svg>